<?xml version="1.0" encoding="utf-8"?>
<!-- Generator: Adobe Illustrator 24.1.0, SVG Export Plug-In . SVG Version: 6.00 Build 0)  -->
<svg version="1.1" id="Calque_1" xmlns="http://www.w3.org/2000/svg" xmlns:xlink="http://www.w3.org/1999/xlink" x="0px" y="0px"
	 viewBox="0 0 84.19 59.53" style="enable-background:new 0 0 84.19 59.53;" xml:space="preserve">
<style type="text/css">
	.st0{fill:#FFFFFF;}
</style>
<g>
	<path class="st0" d="M22.82,37.91l-6.22-9.39v9.39h-1.25V26.21h1.18l6.22,9.36v-9.36H24v11.71H22.82z"/>
	<path class="st0" d="M31.77,37.91v-0.77c-0.66,0.66-1.25,0.87-2.34,0.87c-1.12,0-1.78-0.21-2.29-0.74c-0.4-0.4-0.61-1-0.61-1.65
		c0-1.41,0.99-2.34,2.8-2.34h2.43v-0.77c0-1.18-0.59-1.78-2.07-1.78c-1.04,0-1.56,0.25-2.04,0.92l-0.8-0.74
		c0.72-0.94,1.55-1.2,2.86-1.2c2.17,0,3.24,0.94,3.24,2.7v5.49H31.77z M31.77,34.18H29.5c-1.22,0-1.81,0.49-1.81,1.43
		s0.58,1.38,1.86,1.38c0.69,0,1.3-0.05,1.81-0.54c0.28-0.26,0.41-0.72,0.41-1.4V34.18z"/>
	<path class="st0" d="M38.1,37.91c-1.38,0-2.07-0.97-2.07-2.17v-4.97h-1.02v-0.91h1.02v-2.53h1.18v2.53h1.73v0.91h-1.73v4.93
		c0,0.74,0.35,1.18,1.1,1.18h0.62v1.02H38.1z"/>
	<path class="st0" d="M46.41,37.91v-0.91c-0.58,0.66-1.38,1-2.29,1c-0.87,0-1.6-0.26-2.09-0.76c-0.58-0.56-0.82-1.33-0.82-2.27
		v-5.16h1.18v4.98c0,1.43,0.76,2.16,1.97,2.16c1.22,0,2.02-0.74,2.02-2.16v-4.98h1.19v8.09H46.41z"/>
	<path class="st0" d="M55.07,31.37c-0.44-0.44-0.77-0.59-1.4-0.59c-1.18,0-1.94,0.94-1.94,2.17v4.97h-1.19v-8.09h1.19v0.99
		c0.44-0.67,1.33-1.08,2.27-1.08c0.77,0,1.37,0.18,1.94,0.76L55.07,31.37z"/>
	<path class="st0" d="M61.89,37.91v-0.77c-0.66,0.66-1.25,0.87-2.34,0.87c-1.12,0-1.78-0.21-2.29-0.74c-0.39-0.4-0.61-1-0.61-1.65
		c0-1.41,0.99-2.34,2.8-2.34h2.43v-0.77c0-1.18-0.59-1.78-2.07-1.78c-1.04,0-1.56,0.25-2.04,0.92l-0.8-0.74
		c0.72-0.94,1.55-1.2,2.86-1.2c2.17,0,3.24,0.94,3.24,2.7v5.49H61.89z M61.89,34.18h-2.27c-1.22,0-1.81,0.49-1.81,1.43
		s0.58,1.38,1.86,1.38c0.69,0,1.3-0.05,1.81-0.54c0.28-0.26,0.41-0.72,0.41-1.4V34.18z"/>
	<path class="st0" d="M67.98,37.91c-1.41,0-2.06-0.92-2.06-2.15v-9.56h1.18v9.5c0,0.79,0.27,1.18,1.09,1.18h0.64v1.02H67.98z"/>
</g>
<g>
	<path class="st0" d="M25.92,24.82c0.04,0.13,0.06,0.27,0.06,0.4c0.2-0.24,0.4-0.47,0.62-0.7s0.44-0.45,0.67-0.66
		c0.22-0.21,0.45-0.41,0.69-0.61c0.23-0.2,0.48-0.38,0.74-0.55c0.23-0.15,0.48-0.29,0.75-0.42c0.27-0.13,0.54-0.2,0.82-0.22
		c0.13-0.01,0.25,0.01,0.36,0.06c0.11,0.05,0.18,0.14,0.21,0.28c0.02,0.13,0.01,0.25-0.04,0.37c-0.05,0.12-0.11,0.24-0.17,0.35
		c-0.15,0.26-0.33,0.51-0.53,0.74c-0.2,0.23-0.39,0.47-0.56,0.72c-0.07,0.1-0.14,0.2-0.21,0.29c-0.07,0.1-0.13,0.19-0.19,0.29
		c0.25-0.26,0.51-0.51,0.78-0.74c0.27-0.24,0.54-0.47,0.82-0.7c0.23-0.18,0.47-0.36,0.73-0.55c0.25-0.18,0.52-0.32,0.81-0.41
		c0.04-0.01,0.09-0.02,0.14-0.04c0.06-0.01,0.11-0.02,0.17-0.02c0.05,0,0.1,0.01,0.14,0.04c0.03,0.03,0.05,0.07,0.04,0.14
		c-0.02,0.09-0.06,0.17-0.14,0.25c-0.08,0.08-0.15,0.14-0.2,0.2c-0.18,0.18-0.36,0.36-0.55,0.55c-0.19,0.18-0.37,0.38-0.54,0.58
		c-0.17,0.2-0.33,0.41-0.46,0.63c-0.14,0.22-0.24,0.46-0.3,0.7c-0.02,0.06-0.03,0.12-0.03,0.18c-0.01,0.06,0,0.11,0.01,0.16
		c0.01,0.05,0.04,0.09,0.07,0.13c0.04,0.03,0.1,0.06,0.17,0.06c0.15,0.01,0.3,0,0.46-0.04c0.16-0.03,0.31-0.07,0.45-0.12
		c0.14-0.05,0.29-0.1,0.43-0.16c0.14-0.06,0.28-0.12,0.42-0.18l0.41-0.18c0.03-0.01,0.05-0.02,0.08-0.04
		c0.02-0.01,0.05-0.01,0.08,0.01c0.03,0.02,0.05,0.04,0.05,0.08c0,0.04-0.02,0.06-0.05,0.08c-0.13,0.07-0.26,0.13-0.4,0.18
		c-0.13,0.05-0.26,0.11-0.39,0.17c-0.14,0.06-0.29,0.12-0.43,0.18c-0.15,0.06-0.29,0.12-0.43,0.17c-0.08,0.03-0.16,0.05-0.25,0.08
		c-0.09,0.03-0.18,0.04-0.28,0.05c-0.09,0.01-0.18,0.01-0.28-0.01c-0.09-0.02-0.17-0.05-0.24-0.12c-0.07-0.05-0.11-0.12-0.14-0.2
		c-0.03-0.08-0.03-0.16-0.03-0.24c0.01-0.08,0.02-0.17,0.05-0.25c0.03-0.08,0.06-0.16,0.09-0.22c0.08-0.19,0.17-0.37,0.29-0.53
		c0.12-0.17,0.23-0.33,0.35-0.48c0.02-0.03,0.09-0.1,0.19-0.23c0.11-0.12,0.23-0.27,0.37-0.42c0.14-0.16,0.27-0.32,0.42-0.48
		c0.14-0.16,0.25-0.3,0.34-0.41c-0.09,0.02-0.17,0.05-0.26,0.08c-0.08,0.03-0.17,0.07-0.24,0.12c-0.14,0.07-0.28,0.16-0.41,0.24
		c-0.13,0.09-0.26,0.17-0.39,0.27c-0.25,0.19-0.5,0.39-0.73,0.6c-0.23,0.21-0.46,0.42-0.69,0.65c-0.47,0.47-0.9,0.95-1.3,1.45
		c-0.03,0.03-0.05,0.07-0.08,0.12c-0.03,0.05-0.06,0.09-0.11,0.11c-0.04,0.03-0.09,0.03-0.14,0c-0.05-0.03-0.07-0.07-0.08-0.12
		c-0.01-0.06,0.02-0.12,0.08-0.19c0.06-0.06,0.1-0.12,0.13-0.16l0.34-0.46c0.2-0.28,0.4-0.55,0.6-0.82c0.2-0.27,0.39-0.55,0.59-0.82
		c0.12-0.16,0.23-0.32,0.35-0.47c0.12-0.16,0.23-0.32,0.33-0.49c0.02-0.03,0.05-0.08,0.09-0.15c0.04-0.07,0.08-0.14,0.11-0.21
		c0.03-0.07,0.05-0.15,0.05-0.22c0.01-0.07-0.01-0.12-0.06-0.16c-0.05-0.04-0.12-0.06-0.2-0.06c-0.08,0-0.16,0.01-0.24,0.03
		c-0.08,0.02-0.16,0.04-0.24,0.07c-0.08,0.03-0.14,0.05-0.19,0.07c-0.3,0.11-0.59,0.25-0.86,0.42c-0.27,0.17-0.54,0.35-0.79,0.56
		c-0.59,0.49-1.13,1.03-1.62,1.62c-0.08,0.09-0.15,0.18-0.22,0.28c-0.07,0.09-0.14,0.18-0.21,0.28c-0.07,0.22-0.16,0.43-0.28,0.64
		c-0.12,0.21-0.26,0.39-0.41,0.53c-0.05,0.05-0.1,0.08-0.15,0.1c-0.05,0.02-0.09,0.02-0.13,0.02c-0.04-0.01-0.06-0.03-0.07-0.06
		c-0.01-0.03,0-0.07,0.03-0.13c0.09-0.19,0.19-0.36,0.31-0.53c0.12-0.16,0.24-0.33,0.36-0.48c0.07-0.18,0.11-0.36,0.11-0.57
		c0-0.03-0.01-0.06-0.02-0.1c-0.01-0.04-0.02-0.08-0.03-0.12c-0.01-0.04-0.01-0.08,0-0.12c0-0.03,0.02-0.07,0.05-0.09
		c0.04-0.03,0.09-0.04,0.14-0.02C25.87,24.75,25.9,24.78,25.92,24.82z"/>
	<path class="st0" d="M32.95,25.64c0.32-0.16,0.64-0.32,0.95-0.48c0.09-0.05,0.19-0.1,0.3-0.18s0.21-0.13,0.31-0.15
		c0.06-0.01,0.11,0.01,0.15,0.06c0.04,0.06,0.03,0.11-0.01,0.17c-0.03,0.05-0.07,0.09-0.12,0.13c-0.05,0.04-0.1,0.09-0.14,0.13
		c-0.11,0.13-0.2,0.27-0.27,0.42c-0.02,0.03-0.03,0.06-0.05,0.1c-0.02,0.04-0.03,0.08-0.04,0.12c-0.01,0.04-0.02,0.08-0.02,0.11
		c0,0.03,0.01,0.06,0.03,0.07c0.02,0.02,0.05,0.01,0.11-0.01c0.05-0.03,0.12-0.06,0.18-0.09c0.07-0.03,0.13-0.07,0.18-0.11
		c0.05-0.03,0.09-0.06,0.1-0.07c0.12-0.08,0.22-0.16,0.32-0.24c0.1-0.08,0.2-0.17,0.29-0.27c0.02-0.02,0.05-0.04,0.09-0.06
		c0.04-0.02,0.07-0.02,0.11-0.02s0.06,0.02,0.08,0.05c0.02,0.02,0.03,0.06,0.02,0.11c-0.02,0.06-0.05,0.12-0.09,0.18
		c-0.04,0.06-0.08,0.12-0.11,0.17c-0.04,0.06-0.08,0.12-0.12,0.18c-0.03,0.06-0.07,0.12-0.11,0.18l-0.64,1.17
		c0.19-0.25,0.39-0.48,0.62-0.69c0.02-0.02,0.07-0.07,0.15-0.14c0.08-0.07,0.16-0.15,0.26-0.24c0.1-0.09,0.2-0.18,0.32-0.27
		c0.11-0.09,0.22-0.17,0.32-0.23c0.1-0.07,0.19-0.11,0.26-0.14c0.07-0.03,0.12-0.02,0.14,0.02c0.02,0.03,0,0.07-0.04,0.12
		c-0.05,0.05-0.1,0.09-0.17,0.14c-0.07,0.05-0.14,0.09-0.21,0.13c-0.07,0.04-0.12,0.07-0.14,0.08c-0.13,0.09-0.25,0.19-0.37,0.29
		s-0.23,0.21-0.34,0.32c-0.21,0.21-0.42,0.45-0.61,0.7c-0.19,0.25-0.37,0.51-0.53,0.77c-0.06,0.11-0.12,0.22-0.18,0.33
		c-0.06,0.11-0.12,0.22-0.17,0.33c-0.02,0.03-0.04,0.07-0.06,0.11c-0.02,0.04-0.04,0.07-0.07,0.1c-0.04,0.03-0.09,0.03-0.14,0.02
		c-0.05-0.02-0.08-0.05-0.09-0.1c-0.02-0.04-0.01-0.08,0.01-0.12c0.02-0.03,0.05-0.07,0.07-0.1c0.08-0.14,0.15-0.27,0.23-0.4
		c0.07-0.13,0.15-0.27,0.23-0.41c0.15-0.28,0.3-0.56,0.45-0.83c0.14-0.28,0.29-0.56,0.43-0.85c0.03-0.07,0.07-0.15,0.11-0.22
		c0.04-0.07,0.07-0.15,0.11-0.23l-0.35,0.27c-0.05,0.04-0.1,0.09-0.16,0.14c-0.06,0.05-0.12,0.1-0.19,0.14
		c-0.07,0.04-0.13,0.07-0.2,0.09c-0.07,0.02-0.14,0.01-0.2-0.02c-0.09-0.03-0.15-0.09-0.16-0.17c-0.01-0.08-0.01-0.18,0.03-0.28
		c0.03-0.11,0.08-0.22,0.14-0.33c0.06-0.12,0.13-0.22,0.19-0.33l-0.41,0.17c-0.09,0.05-0.19,0.09-0.28,0.14
		c-0.09,0.05-0.19,0.09-0.28,0.14c-0.03,0.02-0.07,0.04-0.11,0.06c-0.04,0.02-0.08,0.02-0.12,0c-0.03-0.02-0.05-0.05-0.04-0.09
		C32.89,25.68,32.91,25.65,32.95,25.64z"/>
</g>
<g>
	<path class="st0" d="M29.04,44.34c0.46-0.22,0.91-0.46,1.34-0.71c0.43-0.26,0.8-0.54,1.12-0.85l0.4-0.71
		c0.12-0.21,0.26-0.43,0.41-0.65c0.15-0.22,0.32-0.4,0.53-0.54c0.05-0.03,0.12-0.06,0.22-0.09c0.1-0.03,0.18-0.05,0.27-0.05
		s0.15,0.02,0.2,0.07c0.05,0.05,0.05,0.14,0.01,0.27c-0.04,0.1-0.09,0.2-0.16,0.29c-0.07,0.09-0.15,0.18-0.23,0.27
		c-0.08,0.09-0.17,0.17-0.26,0.25c-0.09,0.08-0.16,0.15-0.23,0.22c-0.15,0.15-0.31,0.29-0.47,0.44c-0.16,0.15-0.33,0.28-0.49,0.42
		c-0.04,0.08-0.09,0.16-0.13,0.24c-0.04,0.07-0.08,0.16-0.12,0.24c-0.07,0.12-0.13,0.25-0.2,0.37c-0.07,0.13-0.14,0.25-0.22,0.37
		c0.23-0.13,0.46-0.25,0.7-0.37c0.24-0.11,0.47-0.22,0.71-0.32c0.08-0.04,0.17-0.08,0.28-0.11c0.11-0.03,0.21-0.03,0.31,0
		c0.11,0.04,0.18,0.11,0.21,0.21c0.03,0.1,0.01,0.21-0.04,0.31c-0.04,0.09-0.1,0.17-0.17,0.26c-0.07,0.09-0.14,0.18-0.21,0.27
		c-0.07,0.09-0.14,0.19-0.19,0.29c-0.05,0.1-0.08,0.2-0.08,0.29c0.19-0.02,0.39-0.08,0.6-0.17c0.21-0.09,0.4-0.18,0.57-0.27
		c0.06-0.03,0.13-0.07,0.2-0.12c0.08-0.05,0.14-0.08,0.2-0.1c0.04-0.02,0.07-0.03,0.1-0.01c0.03,0.01,0.06,0.03,0.08,0.06
		c0.02,0.03,0.03,0.06,0.02,0.09c0,0.04-0.03,0.07-0.07,0.09c-0.16,0.09-0.33,0.18-0.49,0.26c-0.17,0.08-0.33,0.16-0.49,0.26
		c-0.07,0.04-0.14,0.08-0.23,0.13c-0.09,0.05-0.18,0.09-0.27,0.12c-0.09,0.03-0.18,0.04-0.27,0.03c-0.09-0.01-0.17-0.05-0.24-0.13
		c-0.05-0.07-0.07-0.14-0.07-0.21c0-0.07,0.02-0.14,0.05-0.21c0.03-0.07,0.07-0.14,0.12-0.2c0.05-0.06,0.09-0.12,0.13-0.17
		c0.08-0.1,0.16-0.21,0.24-0.33c0.08-0.12,0.12-0.24,0.14-0.36c-0.06-0.01-0.12-0.01-0.19,0.01c-0.07,0.01-0.14,0.03-0.21,0.06
		c-0.07,0.03-0.14,0.05-0.21,0.08c-0.07,0.03-0.13,0.05-0.18,0.06c-0.16,0.07-0.32,0.15-0.47,0.24c-0.15,0.08-0.3,0.17-0.44,0.27
		c-0.23,0.17-0.4,0.29-0.49,0.38c-0.1,0.09-0.16,0.14-0.21,0.18c-0.04,0.03-0.08,0.06-0.13,0.07c-0.05,0.02-0.1,0-0.16-0.04
		c-0.06-0.05-0.08-0.1-0.08-0.15c0.01-0.05,0.03-0.09,0.07-0.14c0.21-0.22,0.41-0.46,0.59-0.7c0.18-0.25,0.34-0.5,0.49-0.77
		c-0.2,0.15-0.4,0.29-0.6,0.43c-0.2,0.13-0.4,0.26-0.61,0.39c-0.12,0.08-0.25,0.15-0.37,0.22c-0.12,0.06-0.24,0.13-0.37,0.2
		c-0.04,0.02-0.07,0.03-0.12,0.05c-0.04,0.02-0.08,0.01-0.12-0.02c-0.04-0.03-0.05-0.07-0.05-0.12C28.98,44.39,29,44.36,29.04,44.34
		z M32.52,41.85c0.1-0.1,0.19-0.2,0.29-0.31c0.1-0.11,0.18-0.23,0.25-0.36c-0.17,0.08-0.32,0.19-0.45,0.33
		c-0.13,0.14-0.25,0.29-0.35,0.43l-0.23,0.38c0.08-0.08,0.16-0.16,0.25-0.24C32.36,42.01,32.44,41.93,32.52,41.85z"/>
	<path class="st0" d="M34.1,44.34c0.13-0.07,0.27-0.14,0.41-0.22c0.14-0.08,0.29-0.15,0.43-0.21c0.1-0.17,0.23-0.31,0.41-0.41
		c0.18-0.1,0.36-0.18,0.56-0.21c0.1-0.02,0.22-0.02,0.36,0c0.14,0.01,0.24,0.07,0.31,0.16c0.05,0.06,0.06,0.12,0.04,0.19
		c-0.03,0.06-0.07,0.13-0.13,0.18c-0.06,0.06-0.13,0.11-0.21,0.16c-0.08,0.05-0.13,0.08-0.17,0.1c-0.13,0.08-0.28,0.14-0.43,0.18
		c-0.16,0.04-0.32,0.05-0.48,0.04h-0.04c0.03,0.16,0.1,0.29,0.2,0.37c0.1,0.09,0.22,0.15,0.36,0.19c0.14,0.04,0.28,0.06,0.43,0.05
		c0.15-0.01,0.29-0.02,0.41-0.05c0.18-0.03,0.35-0.08,0.52-0.14c0.17-0.05,0.33-0.12,0.49-0.19c0.07-0.04,0.15-0.07,0.22-0.1
		c0.08-0.03,0.15-0.07,0.21-0.1c0.05-0.02,0.1-0.01,0.16,0.02c0.05,0.03,0.06,0.08,0.02,0.14c-0.04,0.06-0.09,0.1-0.15,0.12
		c-0.07,0.02-0.12,0.05-0.18,0.07l-0.55,0.24c-0.34,0.13-0.67,0.24-1,0.33c-0.15,0.03-0.29,0.04-0.44,0.03
		c-0.15-0.01-0.29-0.04-0.42-0.1c-0.13-0.05-0.24-0.13-0.35-0.24c-0.1-0.1-0.18-0.23-0.22-0.39c-0.01-0.06-0.03-0.12-0.04-0.18
		c-0.01-0.06-0.01-0.11,0.01-0.16c-0.08,0.03-0.16,0.08-0.24,0.13c-0.08,0.05-0.14,0.09-0.2,0.13c-0.04,0.01-0.08,0.04-0.14,0.08
		c-0.06,0.04-0.12,0.04-0.18,0.01c-0.04-0.03-0.06-0.07-0.06-0.12C34.03,44.38,34.06,44.35,34.1,44.34z M35.22,44.03
		c0.18-0.01,0.35-0.05,0.51-0.13c0.16-0.08,0.31-0.18,0.43-0.31c-0.1-0.03-0.2-0.05-0.3-0.03c-0.1,0.01-0.19,0.04-0.27,0.09
		c-0.08,0.04-0.16,0.1-0.22,0.17C35.3,43.88,35.25,43.96,35.22,44.03z"/>
	<path class="st0" d="M37.96,44.35c0.09-0.05,0.2-0.1,0.33-0.17c0.14-0.07,0.28-0.14,0.43-0.2c0.15-0.07,0.3-0.13,0.44-0.19
		c0.14-0.06,0.26-0.11,0.36-0.14c0.05-0.02,0.14-0.06,0.27-0.1c0.13-0.05,0.27-0.09,0.42-0.12c0.15-0.04,0.28-0.06,0.41-0.08
		c0.13-0.01,0.22,0,0.28,0.03c0.09,0.08,0.1,0.16,0.05,0.22c-0.05,0.07-0.12,0.11-0.2,0.12l-0.49,0.06c-0.1,0.03-0.19,0.06-0.26,0.1
		c-0.07,0.04-0.15,0.09-0.24,0.15c-0.04,0.03-0.1,0.09-0.19,0.18c-0.09,0.09-0.18,0.19-0.27,0.29c-0.09,0.11-0.16,0.21-0.21,0.31
		c-0.05,0.1-0.05,0.17,0,0.21c0.04,0.03,0.12,0.04,0.21,0.02c0.1-0.02,0.2-0.05,0.3-0.1c0.1-0.04,0.2-0.09,0.29-0.14
		c0.09-0.05,0.15-0.08,0.18-0.1c0.21-0.13,0.38-0.27,0.52-0.42c0.07-0.07,0.14-0.08,0.21-0.03c0.08,0.06,0.1,0.13,0.07,0.22
		c-0.01,0.05-0.04,0.1-0.08,0.13c-0.04,0.04-0.07,0.07-0.1,0.1c-0.03,0.03-0.06,0.08-0.08,0.14c-0.03,0.05-0.04,0.09-0.02,0.12
		c0.01,0.03,0.04,0.04,0.08,0.05c0.1,0.01,0.23,0.01,0.38-0.02s0.31-0.07,0.48-0.12c0.16-0.05,0.33-0.11,0.49-0.18
		c0.16-0.07,0.3-0.13,0.42-0.19c0.03-0.01,0.07-0.03,0.12-0.06c0.05-0.03,0.1-0.06,0.16-0.08c0.05-0.02,0.11-0.03,0.16-0.03
		c0.05,0,0.09,0.02,0.11,0.06c0.03,0.05,0.03,0.09-0.01,0.12c-0.03,0.04-0.08,0.07-0.14,0.09c-0.06,0.03-0.12,0.05-0.18,0.07
		c-0.06,0.02-0.1,0.04-0.13,0.05c-0.12,0.06-0.25,0.12-0.37,0.17c-0.12,0.05-0.25,0.11-0.38,0.17c-0.09,0.04-0.18,0.08-0.29,0.13
		c-0.1,0.05-0.21,0.1-0.32,0.13c-0.11,0.03-0.22,0.06-0.33,0.07c-0.11,0.02-0.22,0.01-0.31-0.03c-0.12-0.05-0.2-0.12-0.22-0.21
		c-0.02-0.09-0.02-0.19,0.01-0.29l-0.3,0.17c-0.12,0.07-0.25,0.15-0.39,0.22c-0.14,0.08-0.28,0.12-0.42,0.14
		c-0.13,0.01-0.25-0.02-0.35-0.09c-0.1-0.06-0.16-0.17-0.16-0.31c0-0.07,0.03-0.17,0.09-0.28c0.06-0.11,0.13-0.23,0.22-0.35
		c0.09-0.12,0.19-0.23,0.3-0.33c0.11-0.1,0.21-0.18,0.31-0.23c-0.05,0.02-0.13,0.05-0.25,0.1c-0.11,0.05-0.24,0.12-0.38,0.19
		c-0.14,0.07-0.29,0.15-0.45,0.22c-0.16,0.07-0.3,0.15-0.43,0.21c-0.04,0.02-0.07,0.03-0.11,0.02c-0.04-0.01-0.06-0.03-0.08-0.06
		c-0.02-0.02-0.03-0.05-0.02-0.09C37.89,44.39,37.92,44.37,37.96,44.35z"/>
	<path class="st0" d="M42.8,44.34c0.23-0.1,0.45-0.22,0.66-0.34c0.21-0.13,0.42-0.26,0.64-0.41c0.1-0.2,0.22-0.4,0.34-0.59
		c0.12-0.19,0.25-0.38,0.36-0.56c0.12-0.17,0.25-0.34,0.37-0.51c0.12-0.17,0.25-0.34,0.38-0.51c0.11-0.14,0.23-0.29,0.36-0.44
		c0.13-0.15,0.28-0.27,0.44-0.37c0.08-0.04,0.18-0.07,0.29-0.09c0.12-0.02,0.2,0.03,0.24,0.16c0.03,0.08,0.03,0.16,0.01,0.24
		c-0.02,0.07-0.06,0.15-0.12,0.23c-0.05,0.07-0.11,0.15-0.17,0.22c-0.06,0.07-0.1,0.13-0.14,0.18c-0.29,0.42-0.62,0.81-0.98,1.17
		c-0.36,0.36-0.75,0.7-1.17,1c-0.04,0.09-0.08,0.18-0.13,0.28c-0.05,0.1-0.09,0.2-0.13,0.31c-0.04,0.11-0.06,0.22-0.08,0.32
		c-0.01,0.11-0.01,0.21,0.01,0.3c0.08-0.02,0.15-0.03,0.22-0.03c0.06-0.01,0.11-0.01,0.16-0.02c0.05,0,0.08-0.01,0.1-0.02
		c0.22-0.04,0.43-0.1,0.65-0.17c0.21-0.07,0.42-0.16,0.63-0.24c0.06-0.02,0.13-0.05,0.21-0.09c0.08-0.04,0.15-0.05,0.21-0.01
		c0.08,0.06,0.09,0.11,0.03,0.16c-0.06,0.05-0.11,0.08-0.16,0.1l-1.27,0.47c-0.12,0.05-0.25,0.09-0.36,0.14
		c-0.12,0.05-0.24,0.07-0.36,0.08c-0.11,0.02-0.2,0-0.26-0.05c-0.07-0.05-0.11-0.11-0.14-0.19c-0.03-0.08-0.03-0.16-0.03-0.25
		c0.01-0.09,0.02-0.18,0.04-0.26c0.05-0.18,0.12-0.35,0.2-0.53c-0.3,0.2-0.61,0.38-0.94,0.54c-0.07,0.01-0.13-0.01-0.18-0.07
		C42.69,44.43,42.71,44.38,42.8,44.34z M45.02,42.83c0.34-0.32,0.66-0.67,0.94-1.04c0.13-0.15,0.26-0.33,0.37-0.52
		c0.01-0.04,0.04-0.08,0.07-0.14c0.03-0.06,0.05-0.11,0.08-0.17c-0.1,0.05-0.2,0.12-0.29,0.21c-0.09,0.09-0.17,0.16-0.22,0.22
		c-0.17,0.17-0.33,0.35-0.47,0.53c-0.15,0.18-0.29,0.38-0.44,0.58c-0.08,0.12-0.16,0.23-0.23,0.35c-0.07,0.11-0.14,0.23-0.21,0.35
		c0.07-0.05,0.13-0.11,0.2-0.17C44.89,42.95,44.96,42.89,45.02,42.83z"/>
	<path class="st0" d="M47,42.99c0.13,0.01,0.26,0.01,0.39,0.01s0.27-0.01,0.39-0.03c0.21-0.32,0.43-0.64,0.66-0.98
		c0.24-0.34,0.51-0.63,0.81-0.86c0.06-0.04,0.12-0.07,0.18-0.11c0.06-0.04,0.13-0.06,0.19-0.07c0.07,0,0.13,0.03,0.16,0.09
		c0.04,0.06,0.04,0.12,0.02,0.18c-0.03,0.15-0.12,0.29-0.24,0.42c-0.12,0.14-0.23,0.26-0.32,0.37c-0.11,0.15-0.22,0.29-0.35,0.43
		s-0.24,0.28-0.37,0.41l0.65-0.16l1.08-0.33c0.05-0.02,0.1-0.04,0.16-0.05c0.05-0.01,0.1,0.01,0.15,0.07
		c0.04,0.06,0.05,0.12,0.03,0.18c-0.02,0.06-0.06,0.1-0.12,0.13c-0.33,0.12-0.69,0.21-1.05,0.28c-0.37,0.06-0.73,0.12-1.07,0.16
		l-0.16,0.03c-0.09,0.08-0.18,0.16-0.27,0.24c-0.1,0.08-0.19,0.16-0.3,0.24c-0.05,0.07-0.09,0.15-0.13,0.22
		c-0.04,0.07-0.07,0.16-0.11,0.24c-0.01,0.02-0.03,0.07-0.07,0.16c-0.03,0.09-0.05,0.18-0.08,0.27c-0.03,0.09-0.05,0.17-0.06,0.25
		c-0.02,0.07-0.01,0.12,0.01,0.12c0.15,0.03,0.32,0.03,0.5-0.03c0.18-0.05,0.33-0.1,0.47-0.14c0.17-0.06,0.34-0.12,0.5-0.17
		c0.17-0.06,0.34-0.13,0.51-0.2c0.04-0.01,0.1-0.03,0.17-0.03c0.07-0.01,0.1,0.03,0.09,0.13c-0.01,0.06-0.05,0.11-0.14,0.14
		c-0.09,0.03-0.15,0.05-0.2,0.07l-0.78,0.28c-0.09,0.04-0.21,0.09-0.37,0.16c-0.16,0.06-0.32,0.12-0.47,0.16
		c-0.16,0.04-0.3,0.05-0.43,0.02c-0.13-0.03-0.21-0.13-0.24-0.29c-0.02-0.17,0.02-0.33,0.09-0.5c0.08-0.16,0.17-0.34,0.27-0.53
		c-0.33,0.23-0.69,0.43-1.05,0.61c-0.04,0.02-0.08,0.02-0.11,0.01c-0.03-0.02-0.05-0.04-0.07-0.07s-0.02-0.06-0.01-0.09
		c0.01-0.03,0.03-0.06,0.07-0.08c0.26-0.12,0.5-0.25,0.74-0.39c0.24-0.14,0.47-0.29,0.7-0.46l0.15-0.26
		c-0.11,0.01-0.23,0.02-0.36,0.04c-0.13,0.02-0.24,0.01-0.32-0.03c-0.06-0.03-0.08-0.09-0.06-0.15C46.89,43.02,46.93,42.99,47,42.99
		z M48.98,41.94c0.04-0.05,0.07-0.11,0.1-0.17c0.03-0.06,0.07-0.12,0.1-0.17c-0.07,0.07-0.14,0.14-0.2,0.22
		c-0.06,0.07-0.12,0.13-0.16,0.17c-0.13,0.15-0.26,0.29-0.39,0.44c-0.12,0.15-0.24,0.31-0.34,0.48
		C48.44,42.62,48.73,42.3,48.98,41.94z"/>
	<path class="st0" d="M49.31,44.34c0.46-0.22,0.91-0.46,1.34-0.71c0.43-0.26,0.8-0.54,1.12-0.85l0.39-0.71
		c0.13-0.21,0.26-0.43,0.41-0.65c0.14-0.22,0.32-0.4,0.52-0.54c0.05-0.03,0.13-0.06,0.22-0.09c0.1-0.03,0.18-0.05,0.27-0.05
		c0.08,0,0.15,0.02,0.2,0.07c0.05,0.05,0.05,0.14,0.01,0.27c-0.03,0.1-0.09,0.2-0.16,0.29c-0.07,0.09-0.15,0.18-0.23,0.27
		c-0.08,0.09-0.17,0.17-0.26,0.25c-0.09,0.08-0.17,0.15-0.23,0.22c-0.16,0.15-0.31,0.29-0.47,0.44c-0.16,0.15-0.33,0.28-0.5,0.42
		c-0.04,0.08-0.09,0.16-0.13,0.24c-0.04,0.07-0.08,0.16-0.12,0.24c-0.06,0.12-0.13,0.25-0.2,0.37c-0.06,0.13-0.14,0.25-0.22,0.37
		c0.23-0.13,0.46-0.25,0.7-0.37c0.24-0.11,0.47-0.22,0.71-0.32c0.08-0.04,0.17-0.08,0.28-0.11c0.11-0.03,0.21-0.03,0.31,0
		c0.11,0.04,0.18,0.11,0.21,0.21c0.03,0.1,0.01,0.21-0.05,0.31c-0.04,0.09-0.1,0.17-0.17,0.26c-0.07,0.09-0.14,0.18-0.21,0.27
		c-0.07,0.09-0.14,0.19-0.19,0.29c-0.05,0.1-0.07,0.2-0.07,0.29c0.19-0.02,0.39-0.08,0.6-0.17c0.21-0.09,0.4-0.18,0.57-0.27
		c0.06-0.03,0.13-0.07,0.2-0.12c0.07-0.05,0.14-0.08,0.2-0.1c0.04-0.02,0.07-0.03,0.1-0.01c0.03,0.01,0.06,0.03,0.08,0.06
		c0.02,0.03,0.03,0.06,0.02,0.09c0,0.04-0.03,0.07-0.07,0.09c-0.16,0.09-0.33,0.18-0.5,0.26c-0.17,0.08-0.33,0.16-0.49,0.26
		c-0.07,0.04-0.14,0.08-0.23,0.13c-0.09,0.05-0.18,0.09-0.27,0.12c-0.09,0.03-0.18,0.04-0.28,0.03c-0.09-0.01-0.17-0.05-0.24-0.13
		c-0.05-0.07-0.07-0.14-0.07-0.21c0-0.07,0.02-0.14,0.05-0.21c0.03-0.07,0.07-0.14,0.12-0.2c0.05-0.06,0.09-0.12,0.13-0.17
		c0.08-0.1,0.16-0.21,0.24-0.33c0.08-0.12,0.12-0.24,0.14-0.36c-0.06-0.01-0.12-0.01-0.19,0.01c-0.07,0.01-0.14,0.03-0.21,0.06
		c-0.07,0.03-0.14,0.05-0.21,0.08c-0.07,0.03-0.13,0.05-0.18,0.06c-0.16,0.07-0.32,0.15-0.47,0.24c-0.15,0.08-0.3,0.17-0.44,0.27
		c-0.23,0.17-0.4,0.29-0.49,0.38c-0.09,0.09-0.16,0.14-0.21,0.18c-0.03,0.03-0.08,0.06-0.13,0.07c-0.05,0.02-0.1,0-0.16-0.04
		c-0.06-0.05-0.09-0.1-0.08-0.15c0.01-0.05,0.03-0.09,0.07-0.14c0.21-0.22,0.41-0.46,0.59-0.7c0.18-0.25,0.34-0.5,0.49-0.77
		c-0.2,0.15-0.4,0.29-0.6,0.43c-0.2,0.13-0.4,0.26-0.61,0.39c-0.13,0.08-0.25,0.15-0.37,0.22c-0.12,0.06-0.24,0.13-0.37,0.2
		c-0.04,0.02-0.07,0.03-0.12,0.05c-0.04,0.02-0.08,0.01-0.12-0.02c-0.04-0.03-0.05-0.07-0.05-0.12
		C49.25,44.39,49.27,44.36,49.31,44.34z M52.79,41.85c0.09-0.1,0.19-0.2,0.29-0.31s0.18-0.23,0.25-0.36
		c-0.17,0.08-0.32,0.19-0.45,0.33c-0.13,0.14-0.25,0.29-0.35,0.43l-0.23,0.38c0.08-0.08,0.16-0.16,0.25-0.24
		C52.63,42.01,52.71,41.93,52.79,41.85z"/>
</g>
<g>
	<rect x="15.35" y="42.26" class="st0" width="12" height="0.28"/>
</g>
<g>
	<rect x="56.52" y="42.25" class="st0" width="12.3" height="0.29"/>
</g>
</svg>
