<svg id="Calque_1" data-name="Calque 1" xmlns="http://www.w3.org/2000/svg" viewBox="0 0 261.63 388.05"><defs><style>.cls-1{fill:#829e82;}</style></defs><path class="cls-1" d="M298.08,231.1c4.73,18,17.16,31.33,27.46,46.51,1.64-2.89,4-6.23,3.36-8.71-2.59-9.38-.12-17.42,5.9-24.12a143.26,143.26,0,0,1,19-17.5c8.66-6.71,17.95-12.61,27-18.76a41.84,41.84,0,0,1,5.77-2.75c0,.95.16,1.34,0,1.55a29.56,29.56,0,0,1-2.13,2.74A65.72,65.72,0,0,0,370,236c-1.59,5.43-3.38,10.81-5,16.23-3.74,12.45-14.19,22.43-24.31,23.15-6.12.43-12,8.57-10,14.39,3.52,10.37,4,20.49-1.05,30.56a4.54,4.54,0,0,0,.19,3.93c1.63,2.18,3.77,4,6.56,6.82,2-6.07,3.7-11.21,5.34-16.37,4.12-13,7.92-26.06,12.49-38.87,1.13-3.17,4.68-5.48,7.18-8.26-1.72,13.11-3.32,25.4-4.93,37.68l1.65.34c.36-.51.75-1,1.09-1.55,4-6.36,9-10.73,17.32-8.5a4.06,4.06,0,0,0,2.67-.61c8-4.48,10.69-4.22,16.82,2.61,2.75,3.06,5.68,4.72,9.87,4.64a16.62,16.62,0,0,1,7.17,1.45c3.93,1.84,7.43,4.65,11.43,6.29,4.37,1.79,7.41,4.08,8,9.11.31,2.77,1,5.2,4.84,5.9,1.88.34,4,3.45,4.65,5.71,2.44,8-1.37,14.2-7.53,18.56-7.22,5.1-12.08,11.82-16,19.42-8.58,16.47-19.24,21.06-37.41,16-4.95-1.37-7.16-.19-9.07,4.6-1.73,4.32-4,8.46-5.35,12.88-2,6.47-5.31,13.28-4.72,19.65.83,9.13.21,16.74-6.59,23.32-.75.74-.78,3.4-.06,4.29,3.39,4.21,7.16,8.12,10.27,11.56,3-5,5.95-10.06,9.09-15,3-4.74,6.21-9.34,9.29-14,2.78-4.24,4.65-9.57,8.39-12.59,10.21-8.24,21.2-15.53,31.89-23.17,1.21-.86,2.56-1.54,3.84-2.3-.63,4.35-2.15,7.83-3.49,11.37-3,7.86-7.39,15.22-6.72,24.23a41,41,0,0,1-1.29,13.51c-2.17,8-5.43,15.74-2.15,24.3,1.59,4.13-1.64,6.62-4,9.46C404,484,397,490.92,392.33,499.15c-7.6,13.43-14,27.58-20.16,41.76-9.45,21.81-26.19,36-47.25,45.06-17.9,7.71-37.12,9-56.44,7-6.37-.65-12.64-2.16-19-3.27,16.16-1.33,31-16.08,33.37-33.26,3.21-22.73.41-44.45-10-65.08-6.61-13.1-10.64-26.82-10.22-41.74.31-10.63-3.23-19.79-11.68-27a64.9,64.9,0,0,1-10.61-11.88c-6.78-9.54-16.42-12.93-27.32-12.48a48.93,48.93,0,0,1-23.19-4.68c-3.1-1.43-5.89-3.56-8.82-5.37l.61-1.45a41.84,41.84,0,0,0,31.73-1.06,14.22,14.22,0,0,1,12.85.23c5.7,2.76,11.56,4.54,18.2,4.17a33.91,33.91,0,0,1,13.8,2.4c5.15,2,9.78,5.29,14.48,7.93,2.21-2.44,4.43-4.69,6.36-7.15a5.79,5.79,0,0,0,1.39-3.78c-.73-5.91-1.74-11.8-2.69-17.68-1.28-8-4.21-9.8-11.6-6.72-6.59,2.74-13,5.9-19.44,9-9.1,4.35-22.83-1.54-25.53-9.05,13,2.37,18.65.5,28.37-9.21a65.66,65.66,0,0,1,5.58-5c8.65-6.89,18.66-6.06,25.62-.24,4.42,3.7,10.25,5.71,15.94,8.74L303.06,338c-11.87,1.31-21-3.26-29-10.28-8.28-7.34-16.77-13-28.67-11.1-2,.32-5.74-2-6.49-4-.87-2.27.13-5.73,1.35-8.16,1-2,3.49-3.31,5.6-5.17-7.56-3.16-8-10.33-10.28-16.47s-2-11.6,3.11-16.43a16.39,16.39,0,0,0,4-6.27c3.58-10,10-15.87,21.14-15.31a6.68,6.68,0,0,0,2.42-.6c4.11-1.47,7.81-1.45,11.84,1.06,5.35,3.33,6.42,2.63,9.81-2.58,2.67-4.11,5.65-8,8.49-12ZM230.3,370.23c3.63,3.64,10.24,4.73,15.49,2.08,4.57-2.32,9-5.07,13.62-7.15,4.31-1.93,8.9-3.22,14.68-5.25l-6.57-2,3.48-1.14.51-1.24-7.14-3.33c-.05-4.37-2.82-2.69-4.25-1.49-5,4.2-9.76,8.75-14.61,13.16Zm107.09-9.52c1.05-4.89-1-12.42-5.17-18.6-4,11.3-16.15,16.47-20.51,27.25l1.49,1.12,5.84-8.07c-.85,5.08-6.18,8.64-4.29,15.41l7.47-14c-2.09,7.6-6.88,14.2-6.33,22.59,5.17-10.61,7.8-22.52,16.19-31.48-5.08,10.75-11.78,20.88-13.22,32.94l1.34.55L328,367.06l1.11.42c-1.92,5.4-4,10.76-5.72,16.23-1.85,5.87-1.31,6.55,5.75,8.11-.79-10.29,4.51-18.4,9.06-26.84.55-1-.54-2.9-.87-4.39Zm-83.21-91.83c-.64,1-1.79,2-1.68,2.94.44,3.81-6.58,7-.81,11.24a10,10,0,0,1,3.53,5.57l-6.87-7.48c-2.61,2.89-2.61,2.89.45,7.82.24,1.95.16,4,.81,5.81.51,1.39,2,3.53,3,3.51,16.29-.33,29.07,7,40.64,17.62a30.41,30.41,0,0,0,10.51,6.49c3.42,1.14,7.44.45,11.2.57l.72-2c-2.5-2.51-4.75-5.35-7.55-7.48-8.65-6.59-16.77-13.64-23-22.67-5.26-7.61-7.7-15.79-5.94-25,.18-1,.15-2,.29-3.92-3.48,1.32-7.26-2.62-10.27,1.91l-8.4-1.48c-.18.33-.36.66-.55,1l4.45,5.49-.4.44a21.25,21.25,0,0,0-3.27-3,35.06,35.06,0,0,0-4.95-2.11c-.35,1.7-.69,3.39-1,5.09l.12-.09C254.79,269,254.25,268.78,254.18,268.88ZM293.47,524c3.35,22.67-5.09,42.22-16.16,61.08l.94.9c1.76-1.73,4-3.16,5.2-5.23C293.18,563.48,299.22,545.2,297,525a5.53,5.53,0,0,1,.22-2.74c4.52,22.16-1.55,42.11-12.69,61.14,8.76-8.53,11.31-20.22,15.5-31.06l1.24.47c-3.64,9.41-7.27,18.82-10.75,27.83,5.54-2.1,11.55-18.32,18.8-51.43-.76,17.65-6.38,34-14.07,49.72l1.11,1c1.73-1.79,3.94-3.31,5.11-5.41,7.81-14.15,10.66-29.66,12.1-45.53a2.62,2.62,0,0,1,.66-1.61c0,16.93-4.09,32.93-11.34,48.23l1.1.71c1.1-1.35,2.58-2.53,3.26-4.07,7.77-17.8,12.69-36.11,9.89-55.81-2.36-16.55-5.46-32.77-14.38-47.42-3.15-5.18-8.11-7-12.62-9.86-.54-.35-1.55-.16-1.91-.58-5.6-6.53-11.81-12.57-14.67-21.08C271,429.65,267.83,422,265,414.24c-1.09-3-1-5.7,1.71-8,.44-.37.08-1.7.09-2.33l3.86.21.68-2c-6.71-3.35-13.26-7.14-20.23-9.83-2.94-1.13-6.91-.52-10.16.3-5.91,1.48-10.28-2.12-15.28-3.66l-8.22-2.55-.42,1.21,4.06,1.13-16.47,1.92c.06.63.11,1.26.16,1.89l6.67.13-.08,1.08-14.2-1.24-.14,1.17c4.23.75,8.44,2,12.69,2.13,8,.22,16.05,0,23.05,4.72a53.6,53.6,0,0,1,8.32,6.84c4.16,4.28,7.57,9.36,12,13.27,8.11,7.09,12.27,15.88,12,26.37-.5,16.9,5.11,32,12.1,46.91a101.91,101.91,0,0,1,9.46,51c-.05.83-.07,1.66-.07,2.49,0,.09.2.19,1.74,1.57.14-10.47.27-19.7.38-28.05,2.85,5.79,3,19.72-1.77,33.66-3.76,11-9.18,21.48-13.86,32.2C286.79,568.2,294.16,547.45,293.47,524Zm3.09-191.36,0,.64c4.76-.17,9.58,0,14.29-.6,6.95-.9,9.81-7.73,15-11.23.39-.26.5-1.24.42-1.85-.92-7.22,4.16-14.93-3.08-21.63l1.93-.42c1.56,3.46,3.13,6.93,5.26,11.63,1.51-10.47-4.58-16.82-7.92-24.43l4.3,5.28,1.31-.81L297.6,240.67h-.33L303.16,255l-.87.4-7.73-16.5c-2.24,2.15-2.26,2.15-.13,8.89,1,3.25,2.15,6.48,2.14,10.1-1.74-4.82-3.47-9.64-5.52-15.34-4.63,7,1.31,11.82,1.13,17.55l-4.53-9.92c-1.62,1.95-1.62,1.95,1.47,16.73q-2.14-4.8-4.3-9.62l-1.5.21c.41,3,.83,6.1,1.26,9.3l-2-1.5c-1.21,5.34.05,7.71,14.46,28.16-6.79-5.13-10.53-12.66-14.78-19.78l-1.28.45c1.63,4.31,2.76,8.88,5,12.86,5.63,10.09,14.28,17.42,23.42,24.24a31,31,0,0,1,7.05,6.91c3.19,4.64,1.53,7.77-4.15,8.36-6.62.69-13.25,0-18.7-3.92-8-5.68-17.05-7.9-26.33-9.57-3.43-.61-7.09.05-10.37.12,10.33,6.67,20.68,13.8,31.52,20.08,3.39,2,8.11,1.64,12.23,2.37l.12-1.57Zm48.16,142.39c-5,11.55-10.55,22.88-15.94,34.27-.63,1.33-1.45,3-2.63,3.58-6.45,3.23-5.44,8.84-5.35,14.5.25,14.93-4.18,28.9-9.47,42.64-.39,1-.7,2-1,3.06l1.14,1.14c5.8-4.83,12.25-9.07,17.26-14.61,14.14-15.61,22.44-34.54,28.14-54.54,2.44-8.58,3.69-17.57,4.8-26.46s-5.13-14.45-9.94-20.51l-1.71.42C348.26,464.07,347,469.8,344.72,475.07Zm14.21-153.8c.76-9.14,6.18-15.9,11.75-22.59l-.87-.95c-2.42,2.19-5.76,3.94-7.08,6.66-2.56,5.27-5,11-5.65,16.72-1.32,11.66-3,23.08-8.19,33.75-.94,1.92-1.31,4.12-2.23,7.15,16.88-9.28,30.3-20.19,37.59-37.42l1.59,1.06c-1.31,3.05-2.4,6.23-4,9.12-6.25,11.37-12.75,22.59-19,34-2.55,4.68-1.71,6.51,3.7,9.65-.56-10.64,4.19-19.22,9.79-27.53-3.62,9.66-11,18.58-5.86,29.79l4.68-20.38,1.85.33c-2.42,6.74-5.85,13.39-2.57,22.14l4.91-19.87,1.08.27-3.63,15.49,1.65.61a57.64,57.64,0,0,0,3.13-5.22c4.71-10,9.69-20,13.87-30.26,2.8-6.89,4.6-14.22,6.45-21.44.53-2.06-.31-4.46-.64-8l-7,21.23-1.25-.38c2.11-8.14,7.66-15.91,2.82-24.84l-2.54,10c0-4.76,0-8.1,0-11.45l-1.82-.28-2.86,5.28c-.06-.15-.18-.28-.19-.43-.07-2-.14-4-.2-5.92-1.64,1.6-3.63,3-4.84,4.87-1.84,2.85-3.15,6.05-5.71,8.6,1.86-3.83,3.81-7.63,5.54-11.53a20.5,20.5,0,0,0,.91-4.27c-1.35.81-3.15,1.32-4,2.51C377,312.48,374,317.45,370,321.94c1.85-3.42,3.6-6.89,5.57-10.23s4-6.32,6.64-10.42c-6.47,1.42-6.47,1.42-20.19,27.49-.18-6.5,8.51-23.08,15-29.65C365.56,302,363.51,312.62,358.93,321.27ZM379,460.4l.71.34q-3.46,7.74-6.92,15.46l1.26.57L386.59,450l.84.38-6.81,16.28.91.51,13.36-18.88.28.05L375.65,489.6l1.18.59,11.42-21,1.17.6-11.25,22.67,1.07.7c1.32-1.7,3-3.24,3.92-5.14,5.73-11.63,11.29-23.35,16.95-35a9.83,9.83,0,0,1,4-4.52l-18.89,38.91.86.57c1.6-2.4,3.19-4.81,5.61-8.46-.94,2.91-1.44,4.44-1.94,6l1.06.6,5.84-9.42.57.3c-.91,2-1.81,4.05-2.72,6.08l.77.53,3.06-3.89s.12,0,.15.12,0,.34.09.48c.18.36.4.7.79,1.37l3.85-6.77c-.05,1.81-.08,2.71-.16,5.06l4.32-7,1.82,1.23c1.05-2.46,3.65-5.64,2.9-7.25-4.2-9-.62-17,2-25.16a30.25,30.25,0,0,0,.93-13.45c-.61-5,2.23-10.46,3.65-15.7.79-2.91,1.74-5.79,2.62-8.68l-1.72-.75-21.9,17.26c-.66-.06-2.08-.56-2.41-.17a99.14,99.14,0,0,0-6.8,9c-3.95,6.09-7.3,12.61-11.62,18.4-3.65,4.89-6.77,9.74-7.76,17.14l4.42-6.56.55.27-4.43,10.17,1.3.63,10.07-19.69.84.38q-5.19,11.1-10.4,22.18l1,.51Q375.67,466.55,379,460.4Zm-74.36-64.48-.33.78a36.9,36.9,0,0,0-5.81-2.06c-1.31-.25-2.78.37-4.18.6.68,1.39,1,3.45,2.11,4.05,4.19,2.29,8.64,4.1,12.54,7.15-4.35-2-8.66-4.06-13.1-5.8-1.2-.47-2.81.1-4.24.2.81,1.31,1.32,3,2.48,3.85,2.12,1.47,4.62,2.39,8,4.07-5.63.69-8.79-6.49-14.44-2.11l3.5,2.74-6.19.95c1.58,1.78,2.85,4.1,4.8,5.23,5.27,3.08,10.84,5.65,15.83,9.42l-21.06-10.28c-1.57,4.63-1.57,4.63,4.43,9.2l-4.88-1.76c-.87,3.56-.27,6.17,3.7,7.07,5.33,1.22,10.63,2.91,16,3.45a49.6,49.6,0,0,1,21.84,7.79,139.45,139.45,0,0,0,14,7.7c2,1,4.51.9,6.78,1.3l.46-1.28-11.27-7,.66-1.15,11.58,6.47,1-1.23-15-15.62.74-.82,14.54,14,1.25-.58-6.78-13.6.27-.44,4.51,5.28,1.38-1c-3.58-4.76-6.49-10.3-10.9-14.11-6.72-5.83-14.6-10.31-21.73-15.7a46.36,46.36,0,0,1-9.09-9c-3.05-4.05-5.57-4.91-11.34-1.72ZM306,589.37c7.42-.89,14.86-3.65,21.72-6.83,23.87-11.09,38.15-30.4,47.59-54.61,5.4-13.84,13.73-26.53,20.72-39.75a25.22,25.22,0,0,0,.82-2.69c-4.91,3.36-8.87,6.06-12.81,8.78-2.93,2-5.58,4.83-8.82,6-5.92,2.11-8.16,6.56-9.7,11.93-4.67,16.35-11.69,31.45-22.89,44.49-7.94,9.24-16.72,17.2-28.58,21-11.26,3.6-22.56,7.06-33.84,10.59-.94.3-1.86.64-3.33,1.14C287.16,589.49,296.7,590.49,306,589.37ZM424.56,327.56a12.14,12.14,0,0,0,.08-2.24c-7.32-.87-5.56,7.61-10.19,9.25l4-8.33-1.16-1.15-5.62,5.52.39-2.25-.91-.69c-1.6,2.26-4,4.31-4.68,6.82-2.23,8.36-8,14.43-12.57,21.33-3.8,5.71-6.59,12.11-9.74,18.25-1,1.89-1.68,3.91-2.89,6.78,11-7.15,12.23-20.57,21.57-27.77l-17.64,28.33c6.67-.8,9.68-6.93,13.87-11.46l1.07,1.11L387.7,384a14.33,14.33,0,0,0,11.56-6.6c2.34-3.43,4.21-7.18,6.42-10.7a10.13,10.13,0,0,1,4.53-4.2l-13.6,21.19c9.52-3.29,10.94-13.83,17.44-19.92l-6.81,14,1.33.87c1.92-2.54,4.23-4.88,5.69-7.67,4.65-8.92,9.48-17.5,18.34-23.2,2.78-1.79,5.7-4.89,6.47-7.93.93-3.68-.35-7.93-1.75-11.89-.82,2.74-1.63,5.47-2.45,8.2l-.91-.23a38.57,38.57,0,0,0,1.24-5.73c.08-1.07-.72-2.2-1.12-3.3-1,.76-2.36,1.31-3,2.31-3.32,5.3-6.44,10.72-9.68,16.07a2.91,2.91,0,0,1-2.11,1.21q3.68-5.18,7.34-10.36a3.42,3.42,0,0,0,.67-1.33c.42-2.58.76-5.18,1.13-7.77l-5.11,4.16C423.71,330,424.18,328.81,424.56,327.56ZM287.83,434.2l-.6.62L281,431.56c-.41.49-.82,1-1.24,1.48l7.44,7.82-.5.67-7.28-5.92-.9.76c3,3.61,5.75,7.45,9,10.79,3.47,3.52,7.43,6.57,11.18,9.82l-.85,1-16.33-14.36-.52.18a39.61,39.61,0,0,0,3.28,4.72c11.47,12.22,24.86,20.92,42,22.69,6.88.71,12.22-2.1,17.28-7.79l-12,4.06-.32-1,14-6.51-.67-1.49c-4.83.41-9.69,1.31-14.49,1.09a48.41,48.41,0,0,1-14.36-3.29c9.71,1.31,19.3,3.24,29.08-.59l-22.62-5.3.27-1.05,19.83,3.5c-16.84-10.8-34.94-20-56.2-20.2Zm45.06-171.3c-.89,9.26,4.05,12.62,12.77,8.53,8.31-3.9,14.76-10.87,15.84-19.43,1.21-9.65,7.2-16.91,9.3-25.83.07-.31.11-.62.15-.88l-6.15,2.31,2.21-3.39-.64-.67-11.91,10.08,3.34-5c-13,6.25-30.86,25.62-26.33,37Zm-96.76,10.55c2.79,8.7,2.46,17.2,10.63,22.31-.51-1.79-.67-3.79-1.59-5.34-2.57-4.31-1.69-7.91.87-12,2.06-3.28,3.15-7.22,4.33-11,1.47-4.67,5.25-6.64,9.32-7.23,6.53-1,13.19-1,20.59-1.45l2.79-7.68c-3.49-1.93-6.34-3.69-9.34-5.12-2.36-1.12-8.21,1-9.07,2.43l-6.94-.26c0,.87-.05,1.74-.07,2.18l-5.53-.7c0,1.27.06,2.54.1,3.91l-2.48-1.34c-.74,2.69-.74,6.52-2.21,7.21-3.16,1.47-3.67,3.53-3.83,6.33a1.49,1.49,0,0,1-.84,1c-4.81,1.94-5.77,4.92-2.72,9.42ZM357.61,419c-6.35-12-17.07-18.66-28.82-24.07a57.44,57.44,0,0,0-12.69-4.11l24.46,12.82-.63,1.18q-13.69-7-27.37-14l-.82,1.48,28,16-.6,1.11-25.6-14.11-.6.86c4.89,3.34,10,6.46,14.63,10.09a191.4,191.4,0,0,1,17.81,15.05c5.77,5.74,8.53,13,6.53,22.44C361,436.11,362.39,428,357.61,419Zm45.48-83.57c3.4-10.68,12.19-15.33,23-11.87a34.33,34.33,0,0,0,4.67.86L432,323l-6.36-10.67-1.54.67-.1,2.83-4.15-4.65L418,313.9l-3.12-6.11c-1.56,3.11-2.42,4.85-3.46,6.92l.58-9.51-1.65-.45-3.3,3.8.22-4.11-5.11,1-8.06-4.27c1.21-3.34-.85-4.73-5.16-3.86.07-.8.13-1.54.2-2.28l-8,1.43c2.21,6.7,7.16,8.33,12,10,9.52,3.26,12.93,10.28,9.79,19.83-1.09,3.3-1.59,6.79-2.58,10.13-.93,3.14-2.16,6.2-3.25,9.29l1.18.53C399.89,342.67,401.89,339.16,403.09,335.41Zm-77.5,13.75c7.49-8.52,6.88-12.78-2-19.59-3.6,2-7.13,3.74-10.47,5.82a7.16,7.16,0,0,0-2.64,3.34c-2.28,6.07-4.52,12.16-6.39,18.36-.37,1.23.6,3.21,1.53,4.41,1.17,1.52,2.93,2.58,4.51,3.9C315.55,359.75,320.77,354.64,325.59,349.16Zm14.73-21.77c-2.3,5-2.15,8.52.37,13,2.17,3.82,3.51,8.1,5.58,13,10.11-20,7.28-40.79,7.88-61.16l-1.41,11.46-1.29-.21,3.85-21.83c-4.8,5.62-4.65,12.54-5.58,19.11s-1.42,13.16-2.69,19.68l1.37-16.79-.5.1C345.46,311.68,343.78,320,340.32,327.39ZM282.66,389c6,0,9-2,9.51-7.9.57-6.59,2.17-13.09,3.47-20.45-9.79-1.5-16.68-10.88-27.3-12C280.81,359.56,280.2,375,282.66,389Zm68.47,151a255,255,0,0,0,14.13-37.63c1.61-5.44-.1-11.86-.82-18-4.42,27.33-15,52-32.14,75.32C342.31,555.21,347.46,547.65,351.13,539.92ZM277.69,399.48c.88,1.15,1.71,2.26,3.13,4.14-4.05-1.47-7-1.95-6,2.89l-5.72,1,7.73,6.27-.53.75-7.81-4.62-.93.88c1.51,1.81,3,3.63,5.51,6.62l-4.34-2.22-.87,1,7.79,7.46-.3.5-4.79-2.92-1,.41,5.91,12.5,6-6.14c-.86-3.43-3.11-7.42-2.4-10.79.93-4.45,4.12-8.45,6.46-12.58,2.48-4.38,5.11-8.69,8.42-14.31L283.93,392l3.48,3-.31.79-5.48-1-.44,1c2,1.41,4,2.81,6.84,4.81C283.84,400.72,281.37,395.3,277.69,399.48Zm-25.37-86.86,3.52-3.59,32,5.64c-5-3.25-9.06-6.92-13.81-8.69a79.66,79.66,0,0,0-20.21-4.59c-3.36-.31-7.28,1.8-10.43,3.68s-2.73,2.82,0,5.25c.47.42.32,1.55.45,2.35s.17,1.32.25,2l1.56-.61.41-6.59,2.42,6.72,1.41-.28c.2-1.6.4-3.21.74-6Zm117.59,38.43c-.65-.24-1-.46-1.08-.39-5.14,5.47-12.09,8.41-18,12.78-2.53,1.86-2.85,3.84-1.9,6.4.08.23,1.26.05,1.39.05-1,10.63-1.92,21.34-2.89,32.06C353.42,384.54,359,366.68,369.91,351.05ZM337.6,472.61c-6.21.42-10.78,1.78-12.17,8.54a21.4,21.4,0,0,1-4.78,9.18c-4.8,5.54-3.36,11.24-1.43,17.89C328.11,497.45,333.27,485.45,337.6,472.61Zm27.71-87c.55-1.47-.39-3.81-1.26-5.4s-2.59-2.91-4.66-5.12c-3.31,10.05-6.44,19.52-9.79,29.67l5.58,5.71C358.76,401.86,362.26,393.84,365.31,385.65ZM312.23,385c.53-10.81-2.94-18.67-9.53-21.52L298.39,388Zm40.62,71.57C364,466.69,367.37,480,368.7,494.21c.15,1.62.22,3.24.36,5.36,4.38-2.66,6.63-5.12,5.23-10.65-3.59-14.21-9.3-26.9-21-36.19l-1.65.54C352,454.4,352.07,455.9,352.85,456.6ZM339.58,353.75a116.26,116.26,0,0,1,3.18,23.13c.32,7.51-.67,15.08-.26,22.71,1.31-7.42,3.67-14.84,3.63-22.25,0-7.78-2.55-15.52-3.67-23.32-1.15-8.11-4.95-14.92-9.22-21.57l-1.43.46C334.46,339.84,337.79,346.6,339.58,353.75Zm3.56,113.72c-1.13,1.48-2.95,2.83-3.27,4.48-2.37,11.89-8.41,22-14.69,32.1a8.61,8.61,0,0,1-2.5,3.05c-3.29,1.85-3.44,4.45-2.21,7.93C329,508,342.14,481.55,343.14,467.47Zm-27.67,4.94c-2.83-.77-5.54-2-9.39-3.47l4.49,8,2.67-2.68c-.57,2.44-1,4.29-1.43,6.15l.91.47,3.1-4c-.89,3.68-1.54,6.37-2.2,9.05l1.44.52c1.38-2.62,2.75-5.25,4.12-7.87l1,.47c-1.79,4-3.59,8-5.65,12.64,4.33-1.32,7.82-7.57,10.55-17.57C321.6,473.55,318.48,473.21,315.47,472.41Zm23.82-103.48c-7.12,7.4-10,21.09-5,25.66.79-3.09,1.49-5.86,2.06-8.06-.1,2.8-.23,6.17-.35,9.53l2.19.05C341.13,387.32,341.25,378.4,339.29,368.93Zm-34.93-29c-3.72,15.06-7.25,30.16-10.77,45.27a3.45,3.45,0,0,0,.79,2.72c4.18-16.74,8.36-33.48,12.47-49.91C306.41,338.33,304.6,338.94,304.36,339.94Zm65.15,43.36c-6.34,7.78-12.74,28.51-9.73,32.64Zm-41-99.73,5.48-9.23C327.32,276.9,325.84,279.55,328.48,283.57Z" transform="translate(-181.05 -205.77)"/><path class="cls-1" d="M309.45,501l3.94,19.53,1.45-.29-4.11-19.5Z" transform="translate(-181.05 -205.77)"/><path class="cls-1" d="M255.12,269.05,267,284.77l1.49-1.26L255,269.14Z" transform="translate(-181.05 -205.77)"/><path class="cls-1" d="M301.93,459.6l12.76,5.08.64-1.59-12.7-4.94Z" transform="translate(-181.05 -205.77)"/><path class="cls-1" d="M337.39,360.71l-8.58,12.7,1.72,1,6.78-13.83Z" transform="translate(-181.05 -205.77)"/></svg>