<svg id="Calque_1" data-name="Calque 1" xmlns="http://www.w3.org/2000/svg" viewBox="0 0 248.69 402.1"><defs><style>.cls-1{fill:#829e82;}</style></defs><path class="cls-1" d="M344.1,234.89c2.11,4.43,4.36,8.8,6.28,13.31,2.44,5.72,3.37,6.59,9.22,4.24,4.4-1.77,8-1.15,11.84,1a6.47,6.47,0,0,0,2.27,1c11.11,1.39,16.38,8.27,18.17,18.75a16.46,16.46,0,0,0,2.82,6.87c4.21,5.64,3.55,11,.22,16.72s-5,12.64-13,14.44c1.75,2.19,4,3.89,4.62,6.06.78,2.6,1.16,6.18-.09,8.26-1.07,1.79-5.15,3.46-7.08,2.79-11.39-3.92-20.73.16-30.16,5.95-9,5.54-18.84,8.45-30.3,5.09.83,7.37,1.61,14.19,2.52,22.22,6.13-2,12.22-3,17.22-5.85,7.85-4.52,17.86-3.6,25.18,4.69a68.84,68.84,0,0,1,4.64,5.85c7.88,11.26,13.15,14.08,26.34,14-4,6.93-18.51,10.34-26.72,4.47-5.8-4.15-11.57-8.37-17.58-12.21-6.75-4.31-9.95-3-12.59,4.6-2,5.63-4,11.25-5.72,16.95a5.8,5.8,0,0,0,.7,4c1.49,2.76,3.28,5.36,5,8.15,5.08-1.79,10.22-4.23,15.64-5.3a33.87,33.87,0,0,1,14,0c6.48,1.52,12.56.79,18.65-.94a14.23,14.23,0,0,1,12.7,2A41.86,41.86,0,0,0,430,408.57c.12.51.24,1,.35,1.53-3.2,1.27-6.31,2.88-9.62,3.76a49.1,49.1,0,0,1-23.65.58c-10.65-2.33-20.74-.67-29.07,7.54a64.61,64.61,0,0,1-12.52,9.86c-9.56,5.6-14.63,14-16.18,24.52-2.17,14.77-8.53,27.58-17.31,39.33-13.83,18.52-20.36,39.42-21.15,62.36-.6,17.34,11.41,34.43,27.08,38.55-6.41,0-12.85.39-19.23-.08-19.37-1.42-38.07-6-54.36-16.73-19.17-12.59-33.19-29.46-38.71-52.58-3.59-15-7.44-30.08-12.6-44.62-3.17-8.92-8.88-17-13.72-25.26-1.88-3.21-4.63-6.23-2.35-10,4.72-7.85,2.84-16,2.1-24.3a41.07,41.07,0,0,1,1.08-13.53c2.23-8.76-.86-16.78-2.41-25-.7-3.72-1.6-7.41-1.46-11.8,1.13,1,2.33,1.87,3.37,2.93C198.84,385,208.39,394,217,403.93c3.16,3.63,4.08,9.2,6.08,13.86,2.21,5.16,4.58,10.25,6.7,15.44,2.23,5.44,4.26,11,6.35,16.38,3.66-2.85,8-6,12.12-9.6.86-.76,1.3-3.38.68-4.23-5.55-7.67-4.84-15.27-2.43-24.12,1.68-6.16-.37-13.44-1.24-20.16-.59-4.6-2.08-9.07-3-13.63-1.05-5-3-6.59-8.13-6.09-18.77,1.82-28.48-4.55-34.07-22.26-2.58-8.17-6.2-15.63-12.42-21.91-5.32-5.37-8-12.13-4.2-19.59,1.07-2.1,3.67-4.8,5.58-4.81,3.93,0,5-2.3,5.79-5,1.42-4.85,4.81-6.58,9.43-7.59,4.22-.92,8.15-3.08,12.35-4.21a16.54,16.54,0,0,1,7.31-.18c4.11.81,7.29-.32,10.52-2.86,7.22-5.66,9.94-5.45,17,.36a4.11,4.11,0,0,0,2.53,1.06c8.56-.75,12.71,4.41,15.57,11.38.24.58.54,1.14.81,1.71l1.69-.05c.55-12.37,1.09-24.75,1.68-38,2,3.17,5.08,6.06,5.64,9.38,2.27,13.41,3.75,27,5.55,40.45.72,5.37,1.52,10.72,2.41,17,3.25-2.3,5.67-3.7,7.65-5.57a4.53,4.53,0,0,0,.87-3.84c-3.19-10.78-1-20.67,4.28-30.28,2.95-5.38-1.38-14.41-7.34-15.9-9.84-2.47-18.4-14.11-19.92-27-.66-5.62-1.48-11.23-2.1-16.85a65.66,65.66,0,0,0-9.81-28.06,31,31,0,0,1-1.63-3.07c-.1-.23.1-.59.28-1.52a43,43,0,0,1,5.21,3.71c7.88,7.63,16,15.06,23.37,23.16a145.21,145.21,0,0,1,15.68,20.54c4.76,7.65,5.8,16,1.62,24.78-1.1,2.33.68,6,1.79,9.16,12.78-13.16,27.35-24.15,35.12-41Zm27,140c-4-5.19-7.88-10.49-12.1-15.5-1.2-1.43-3.64-3.56-4.45.73l-7.61,2,.29,1.31,3.23,1.72-6.82.84c5.34,3,9.64,5.07,13.55,7.71,4.24,2.87,8.07,6.33,12.17,9.41,4.71,3.53,11.41,3.6,15.61.64Zm-89.83-19.17c-.58,1.4-2,3.08-1.62,4.17,3,9.1,6.83,18,4.27,28,7.22-.32,7.87-.89,7.07-7-.75-5.69-1.87-11.33-2.82-17l1.17-.22q2,11.19,4,22.36l1.41-.3c.68-12.13-4.17-23.27-7.3-34.74,6.71,10.28,7.23,22.46,10.48,33.82,2-8.17-1.57-15.5-2.31-23.35,1.55,4.77,3.11,9.54,4.92,15.1,3-6.34-1.59-10.77-1.55-15.92l4.35,9,1.67-.85c-2.43-11.37-13.52-18.57-15.47-30.39-5.22,5.36-8.51,12.43-8.33,17.42Zm96.83-75.88.1.11c-.05-1.73-.09-3.46-.14-5.19a35.29,35.29,0,0,0-5.24,1.21,21.05,21.05,0,0,0-3.75,2.43l-.31-.5,5.33-4.64-.36-1.07h-8.54c-2.18-5-6.58-1.76-9.78-3.67a37.84,37.84,0,0,0-.39,3.92c.13,9.4-3.7,17-10.2,23.61-7.72,7.81-16.94,13.33-26.6,18.32-3.12,1.62-5.83,4-8.73,6.07l.35,2.12c3.73.53,7.57,1.91,11.14,1.38a30.53,30.53,0,0,0,11.47-4.56c13.23-8.42,27.1-13.46,43.09-10.3,1,.19,2.77-1.66,3.52-2.95.95-1.65,1.23-3.7,1.8-5.57,3.88-4.33,3.88-4.33,1.81-7.63l-8.07,6.17a10,10,0,0,1,4.45-4.87c6.41-3.17.06-7.54,1.15-11.21.26-.87-.68-2.13-1.14-3.18C379,279.69,378.43,279.8,378.1,279.81ZM305.27,589.59c-2.75-11.36-6.27-22.6-8-34.11-2.26-14.55.28-28.25,4.1-33.46-1.34,8.25-2.83,17.36-4.51,27.69a14,14,0,0,0,2-1.24c.14-.82.27-1.64.36-2.46a102.06,102.06,0,0,1,18.18-48.59C326.81,484,335,470.06,337.4,453.33c1.51-10.39,7.14-18.32,16.36-23.89,5.08-3.08,9.32-7.49,14.16-11a53.14,53.14,0,0,1,9.39-5.29c7.7-3.45,15.58-1.83,23.51-.65,4.21.62,8.58.11,12.87.11l.07-1.18-14.21-1.24.11-1.08,6.59,1c.16-.61.32-1.22.49-1.83l-15.89-4.76,4.2-.4-.21-1.27L386.3,403c-5.19.66-10.11,3.45-15.68,1-3.06-1.37-6.86-2.67-9.95-2.06-7.33,1.44-14.44,4-21.63,6.16l.31,2.12,3.85.46c-.11.62-.69,1.87-.32,2.32,2.28,2.71,1.89,5.4.3,8.14-4.16,7.14-8.56,14.14-12.5,21.39-4.29,7.88-11.45,12.76-18.1,18.21-.43.35-1.39,0-2,.24-4.93,2.05-10.13,3-14.13,7.51-11.33,12.89-17.2,28.32-22.4,44.21-6.18,18.91-4.52,37.8.05,56.68.4,1.63,1.65,3.06,2.51,4.58l1.19-.52c-4.48-16.32-5.76-32.8-2.79-49.46a2.47,2.47,0,0,1,.37,1.7c-1.33,15.88-1.21,31.65,4,46.93.78,2.28,2.7,4.16,4.09,6.22l1.26-.8c-4.83-16.85-7.53-33.89-5.22-51.41,1.39,33.87,4.5,50.89,9.59,53.92-1.86-9.48-3.81-19.38-5.75-29.28l1.3-.25c2.24,11.41,2.73,23.36,9.87,33.28-7.67-20.67-10.18-41.38-1.88-62.41a5.63,5.63,0,0,1-.26,2.73c-5.69,19.56-2.92,38.6,3.66,57.35.79,2.23,2.78,4,4.21,6.05l1.08-.72c-7.62-20.5-12.54-41.22-5.3-63C291.31,547.2,295,568.91,305.27,589.59Zm16.59-253.7-.15,1.57c4.17,0,8.77,1.13,12.45-.21,11.77-4.3,23.19-9.53,34.53-14.3-3.22-.64-6.71-1.93-10.2-1.92-9.42,0-18.74.65-27.59,4.86-6,2.87-12.69,2.44-19.09.61-5.49-1.57-6.59-4.94-2.64-8.95a31.09,31.09,0,0,1,8.14-5.59c10.19-5.13,20-10.84,27.28-19.81,2.87-3.53,4.78-7.84,7.12-11.79l-1.18-.67c-5.42,6.28-10.41,13-18,16.92,17.75-17.65,19.39-19.76,19.13-25.23l-2.2,1.14c1-3.08,1.92-6,2.86-8.95l-1.44-.46L345,271.84c5.61-14,5.61-14,4.35-16.23l-6.18,9c.82-5.67,7.51-9.39,4.16-17.08-3,5.25-5.55,9.7-8.1,14.14.62-3.57,2.28-6.55,3.86-9.57,3.27-6.27,3.25-6.28,1.42-8.78L334,258.22l-.79-.55q4.15-6.57,8.3-13.13l-.33,0L302.74,287l1.15,1,5.15-4.45c-4.61,6.92-11.7,12.11-12,22.69l7.2-10.54,1.82.75c-8.29,5.33-4.62,13.81-6.79,20.76-.18.59-.24,1.57.1,1.9,4.53,4.35,6.16,11.57,12.85,13.66,4.54,1.42,9.31,2.08,14,3.08l.09-.63ZM251.77,450l-1.61-.7c-5.79,5.13-12.9,9.5-13.35,18.47s-.78,18,.13,26.89c2.14,20.69,7,40.77,18.24,58.6,4,6.33,9.6,11.62,14.47,17.39l1.32-.93c-.16-1.06-.28-2.14-.49-3.19-2.83-14.46-4.77-29-1.93-43.64,1.08-5.56,3-10.91-2.74-15.21-1.07-.79-1.59-2.56-2-4-3.33-12.15-6.8-24.27-9.74-36.52C252.75,461.55,252.51,455.7,251.77,450Zm1-161.7c5.28,7.59,11,25.43,9.65,31.81-9-28.06-9-28.06-15.11-30.58,1.88,4.49,3.42,7.91,4.73,11.41s2.48,7.36,3.71,11c-3.15-5.11-5.2-10.52-7.59-15.77-.6-1.31-2.28-2.12-3.46-3.16a20.45,20.45,0,0,0,.14,4.37c1,4.14,2.29,8.22,3.46,12.32-2.08-3-2.81-6.33-4.13-9.46-.87-2.07-2.58-3.78-3.92-5.64-.41,1.93-.81,3.86-1.23,5.8,0,.14-.17.25-.26.39l-1.89-5.7L235,295c-.57,3.3-1.15,6.6-2,11.29-.31-4.3-.54-7.3-.76-10.3-6.32,8-2.2,16.57-1.54,25l-1.29.16c-1-6.91-2-13.83-3.19-22.12-.94,3.43-2.18,5.65-2,7.76.57,7.44,1.06,15,2.63,22.23,2.33,10.85,5.51,21.51,8.41,32.22a55.38,55.38,0,0,0,2.17,5.69l1.73-.32q-.45-8-.88-15.89l1.11-.07c.43,6.32.85,12.65,1.38,20.42,4.75-8.05,2.53-15.2,1.32-22.26H244l1.08,20.88c7-10.14,1.28-20.21-.61-30.35,4.08,9.15,7.27,18.43,4.86,28.81,5.87-2.15,7-3.81,5.33-8.86-4.14-12.29-8.6-24.48-12.78-36.75-1.06-3.13-1.58-6.45-2.34-9.68l1.75-.76c4.18,18.22,15.51,31.31,30.52,43.37-.38-3.14-.36-5.37-.95-7.43-3.29-11.41-2.94-22.94-2.21-34.66.36-5.76-1.06-11.81-2.66-17.45-.83-2.91-3.81-5.2-5.82-7.78l-1,.78c4.32,7.56,8.49,15.16,7.65,24.29C263.79,303.9,263.62,293.07,252.78,288.26ZM227.25,460l1.09-.32L222,436l.89-.23,6.51,21.14,1.38-.4-2.59-10.78.58-.18c.91,2,1.82,4.08,3.22,7.24.31-7.46-1.93-12.78-4.66-18.23-3.26-6.46-5.43-13.45-8.26-20.13a93.57,93.57,0,0,0-5.13-10.08c-.25-.45-1.73-.2-2.4-.25l-18.56-20.81-1.84.45c.37,3,.81,6,1.08,9,.49,5.4,2.34,11.26.87,16.09a30.23,30.23,0,0,0-1.42,13.41c1.14,8.5,3.27,17-2.41,25.12-1,1.46,1,5,1.59,7.64l2-.89c.84,2.11,1.68,4.21,3,7.64.34-2.33.46-3.22.72-5,1.06,3,1.77,5,2.62,7.34.51-.59.78-.89,1-1.21.09-.13.09-.32.17-.46s.17-.09.16-.09c.79,1.46,1.56,2.91,2.34,4.36l.86-.39-1.63-6.46.61-.19q2.07,5.14,4.12,10.29l1.15-.41c-.22-1.6-.45-3.2-.88-6.23,1.76,4,2.91,6.67,4.06,9.31l1-.42-11.85-41.59a9.83,9.83,0,0,1,3.12,5.14c3.55,12.47,7,25,10.61,37.43.59,2,2,3.84,3,5.75l1.17-.51L211,454.14l1.25-.39,7.6,22.7,1.26-.37-12.06-44h.28q5,10.46,9.88,20.91l1-.34q-1.94-8.59-3.88-17.21l.89-.23,7.74,28.53,1.34-.34L222.15,447l.76-.22Q225.09,453.37,227.25,460Zm88.56-66.43c-5.13-4.14-7.76-3.74-11.47-.27a46.28,46.28,0,0,1-10.51,7.27c-8,4.07-16.5,7.11-24.13,11.68-5,3-8.83,7.94-13.18,12l1.18,1.23,5.36-4.41.19.48-9,12.21,1.14.8,16.73-11.24.59.94-17.44,12.78.75,1.38,12.52-4.36.46,1.25-12.32,5,.23,1.33c2.31,0,4.76.5,6.9-.1a138.08,138.08,0,0,0,15.08-5.15,49.42,49.42,0,0,1,22.87-3.88c5.42.4,10.93-.34,16.39-.61,4.07-.21,5.11-2.67,4.87-6.33l-5.1.88c6.7-3.46,6.7-3.46,5.95-8.28l-22.53,6.46c5.58-2.84,11.51-4.41,17.23-6.52,2.13-.78,3.78-2.84,5.64-4.32l-5.93-2,3.92-2.09c-4.8-5.29-9.16,1.23-14.59-.43,3.65-1.06,6.27-1.54,8.61-2.62,1.28-.59,2.09-2.21,3.11-3.36-1.39-.34-2.88-1.19-4.15-.93-4.67.95-9.27,2.26-13.9,3.43,4.37-2.32,9.07-3.33,13.6-4.85,1.19-.41,1.86-2.38,2.77-3.63-1.34-.47-2.68-1.33-4-1.32a36.8,36.8,0,0,0-6.08,1l-.19-.83ZM301,591.5c-1.36-.75-2.21-1.24-3.08-1.69-10.49-5.44-21-10.81-31.48-16.31-11-5.79-18.29-15.15-24.5-25.63-8.78-14.78-13.06-30.88-14.82-47.79-.58-5.55-2-10.32-7.48-13.43-3-1.71-5.11-4.92-7.65-7.43-3.41-3.36-6.83-6.7-11.09-10.87a23,23,0,0,0,.34,2.79c4.59,14.23,10.59,28.18,13.5,42.75,5.09,25.47,15.8,47,37.39,62,6.2,4.32,13.05,8.33,20.2,10.5C281.33,589.15,290.91,589.82,301,591.5ZM201.67,311.74l-4.32-5c-.08,2.62-.2,5.24-.24,7.85a3.6,3.6,0,0,0,.44,1.43c1.79,3.83,3.61,7.65,5.42,11.47a2.86,2.86,0,0,1-1.86-1.55c-2.27-5.83-4.4-11.71-6.75-17.51-.44-1.09-1.67-1.87-2.54-2.8-.59,1-1.56,2-1.67,3.06a38.48,38.48,0,0,0,.22,5.86l-.93.07-1-8.5c-2.07,3.65-4.07,7.61-3.79,11.41.23,3.12,2.57,6.68,5,8.93,7.73,7.15,11,16.43,14,26,.95,3,2.82,5.71,4.27,8.55l1.46-.63q-2.13-7.47-4.28-14.95c5.34,7.13,4.91,17.76,13.72,22.65-3.29-7.86-6.5-15.55-9.72-23.23a10.2,10.2,0,0,1,3.74,4.92c1.55,3.85,2.75,7.87,4.46,11.65A14.31,14.31,0,0,0,227.57,370l-10-14.89,1.25-.9c3.34,5.18,5.24,11.74,11.67,13.69l-12.46-31c7.95,8.72,6.87,22.15,16.43,31.09-.7-3-1-5.14-1.67-7.17-2-6.6-3.67-13.38-6.43-19.67-3.32-7.59-7.92-14.56-8.68-23.19-.22-2.59-2.23-5-3.42-7.53l-1,.52v2.29l-4.58-6.42-1.34.93c.83,3,1.67,5.93,2.51,8.91-4.28-2.42-1.08-10.47-8.44-10.88a11.47,11.47,0,0,0-.3,2.22C201.23,309.31,201.48,310.6,201.67,311.74ZM319.2,435.6c-21-3.52-40.39,2.42-58.85,10.13h20.14l.08,1.08-23.2,1.29c9,5.47,18.75,5.23,28.53,5.64a48.72,48.72,0,0,1-14.71.74c-4.77-.61-9.39-2.35-14.08-3.59l-.91,1.35,12.68,8.84-.48.9-11.15-6.09c4,6.48,8.77,10.18,15.67,10.68,17.18,1.22,31.88-5,45.29-15.06a38.07,38.07,0,0,0,4.05-4.08l-.48-.27-18.57,11.31-.66-1.15c4.26-2.55,8.68-4.86,12.71-7.74,3.81-2.71,7.19-6,10.76-9.06l-.75-.89-8.2,4.55-.38-.73,8.68-6.42-1-1.67-6.72,2.12-.48-.71ZM303.49,263.26c6.45-10.45-7.82-32.64-19.5-41l2.43,5.46-10-12-.76.55,1.59,3.72-5.65-3.34c0,.26,0,.58,0,.89.51,9.15,5.15,17.34,4.67,27-.43,8.62,4.72,16.61,12.22,21.89,7.88,5.54,13.33,3.09,14.06-6.18Zm88.13,26.14c3.78-3.9,3.35-7-1-9.74a1.5,1.5,0,0,1-.66-1.13c.33-2.78.19-4.9-2.67-6.9-1.33-.93-.66-4.7-.92-7.48l-2.68.89c.28-1.35.53-2.59.78-3.83l-5.57-.28c.06-.44.19-1.3.31-2.15l-6.88-.95c-.6-1.58-6-4.67-8.51-4-3.21.88-6.32,2.12-10.08,3.42.42,2.4,1,5.56,1.4,8.05,7.21,1.75,13.77,2.93,20,5,3.91,1.29,7.29,3.88,7.92,8.74.51,3.9.9,8,2.36,11.55,1.82,4.46,2.06,8.16-1.23,12-1.17,1.37-1.67,3.31-2.48,5,8.93-3.62,10.08-12,14.33-20.13ZM252.48,435c-.32-9.65,3.66-16.32,10.34-21A191.33,191.33,0,0,1,283,402.34c5.22-2.77,10.76-4.95,16.16-7.4l-.44-.95L271,403.44l-.41-1.19L301,391.31l-.56-1.6L271,398.77l-.42-1.27,26.32-8.38A57.66,57.66,0,0,0,283.7,391c-12.51,3.3-24.22,8-32.57,18.7C244.85,417.75,244.82,426,252.48,435ZM223.73,331l1.25-.32c-.54-3.23-1.22-6.45-1.59-9.71-.39-3.46-.28-7-.78-10.42-1.44-10,3.15-16.28,13.09-17.84,5.08-.79,10.24-1.54,13.58-7.75l-7.64-2.8c-.06.74-.13,1.48-.2,2.28-4.09-1.6-6.36-.6-5.75,2.91l-8.68,2.8-4.85-1.91-.51,4.09L219.07,288l-1.7.15-1.09,9.48-2.2-7.43c-1.88,2.5-3.09,4.1-4.14,5.48l-1.34-3-4.89,3.86.39-2.8-1.41-.94-8.11,9.42,1,1.55a35.82,35.82,0,0,0,4.75,0c11.19-1.54,19,4.56,20.54,15.66C221.38,323.37,222.74,327.17,223.73,331Zm83.45,34.13c1.78-1,3.69-1.77,5.11-3.06,1.12-1,2.43-2.8,2.28-4.08-.77-6.43-1.91-12.82-3.11-19.18a7.18,7.18,0,0,0-2-3.76c-2.92-2.62-6.09-5-9.3-7.54-9.91,5.17-11.24,9.25-5.35,19C298.58,352.7,302.84,358.64,307.18,365.14Zm-26.47-67.26-.48-.18-1.56,16.77c-.12-6.65.54-13.24.76-19.85s1.58-13.42-2.18-19.78V297l-1.3,0,.6-11.53c-2.94,20.16-9.34,40.15-2.86,61.6,2.9-4.51,5-8.49,7.76-11.87,3.25-3.94,4-7.42,2.61-12.71C282,314.54,281.73,306.11,280.71,297.88Zm70.57,57.94c-10.66-.7-19.08,7.33-29,7.12,0,7.46.45,14.14-.13,20.73-.53,5.92,2.09,8.42,8,9.43C335,379.76,337.09,364.48,351.28,355.82ZM251.64,552.56c-12.8-25.94-19-52.07-18.57-79.75-1.78,5.91-4.58,11.93-3.94,17.57a255.72,255.72,0,0,0,7.38,39.52C238.79,538.14,242.54,546.48,251.64,552.56Zm71.23-149,7.57-3.55-.26-1h-5.57l-.17-.83,3.94-2.33-9.64-3.37c2.29,6.11,4.13,10.81,5.81,15.56,1.59,4.47,4,9,4.18,13.51.11,3.44-2.8,7-4.24,10.2,1.72,2.52,3.17,4.64,4.84,7.1l8-11.28-.9-.58-5.22,2-.21-.54,9-6-.69-1.15-4.65,1.43,6.58-5.56-.77-1-8.49,3.2-.39-.84,8.69-4.83-5.45-1.95c1.86-4.58-1.13-4.62-5.37-3.88l3.79-3.54C330.33,399.58,327,404.49,322.87,403.59Zm52.92-84.72c-.14,2.78-.23,4.4-.31,6l1.34.52,3.55-6.2c-.3,2.73-.52,4.65-.73,6.56l1.42.88c.2-.64.39-1.28.6-1.91s.31-1.9.84-2.24c3.1-1.92,3.61-2.82.9-5.17s-6.27-5.16-9.64-5.44a79.73,79.73,0,0,0-20.69,1c-5,.91-9.61,3.83-15.12,6.16h32.5l2.85,4.14ZM264.14,394.66c.91-10.72,1.81-21.44,2.71-32.07.14,0,1.26.4,1.38.19,1.38-2.35,1.41-4.36-.76-6.64-5.08-5.33-11.41-9.42-15.52-15.71,0-.07-.46.08-1.13.2C258.82,357.92,261.24,376.47,264.14,394.66Zm9.3,109.56c3.06-6.22,5.47-11.58,1.7-17.88a21.32,21.32,0,0,1-3.11-9.86c-.2-6.9-4.46-9-10.5-10.52C263.56,479.35,266.56,492.07,273.44,504.22ZM255,401.75l6.49-4.66c-1.54-10.57-3-20.45-4.5-30.91-2.42,1.81-4.28,2.75-5.47,4.22s-2.47,3.56-2.19,5.1C250.92,384.09,253,392.61,255,401.75Zm59.84-12.35V364.57c-7,1.67-11.77,8.8-13.12,19.54Zm-63.78,55.07-1.53-.82c-13.14,7.12-21,18.62-27,32-2.33,5.21-.55,8,3.31,11.4.5-2.06.85-3.65,1.28-5.21,3.77-13.76,9.41-26.29,22.14-34.29C250.17,447,250.48,445.52,251.06,444.47Zm40.42-115.09-1.32-.7c-5.36,5.81-10.29,11.86-12.83,19.64-2.45,7.49-6.27,14.68-7.66,22.33-1.33,7.29-.29,15-.29,22.54,1.73-7.44,2.07-15.06,3.69-22.41a115.64,115.64,0,0,1,7.15-22.22C283.22,341.83,287.67,335.75,291.48,329.38ZM271,510.7c1.81-3.21,2.12-5.8-.79-8.19a8.54,8.54,0,0,1-1.94-3.44c-4.44-11-8.63-22-8.89-34.16,0-1.68-1.59-3.32-2.44-5C255.5,474,263.84,502.34,271,510.7Zm2.52-41c1,10.32,3.31,17.08,7.34,19.14l-3.37-13.43,1.1-.29q1.33,4.23,2.69,8.46l1.51-.25c-.18-2.76-.36-5.52-.6-9.3,1.15,2.18,1.76,3.32,2.36,4.47l1-.31c-.1-1.9-.2-3.8-.34-6.3l2.17,3.1c1.88-2.31,3.56-4.38,5.82-7.14-4,.76-6.93,1.53-9.86,1.79C280.26,469.87,277.12,469.66,273.55,469.66Zm.69-79.15,2.16.34c.47-3.33.93-6.67,1.32-9.45.17,2.27.39,5.12.63,8.29,5.69-3.63,5.24-17.61-.48-26.13C274.29,372.54,272.86,381.35,274.24,390.51Zm40.94-51.77c1.19,16.91,2.4,34.12,3.61,51.33a3.45,3.45,0,0,0,1.25-2.54c-.84-15.49-1.69-31-2.74-46.46C317.23,340.05,315.56,339.13,315.18,338.74ZM249.53,406.3c3.67-3.55,1-25.08-3.92-33.84C247,384.39,248.22,395,249.53,406.3Zm50-135,3.79,10C306.63,277.87,305.64,275,299.54,271.33Z" transform="translate(-181.66 -194.66)"/><path class="cls-1" d="M284.32,498.8l-7.27,18.56-1.38-.54q3.7-9.26,7.43-18.5Z" transform="translate(-181.66 -194.66)"/><path class="cls-1" d="M378.1,279.81l-14.45,13.41-1.25-1.49,15.8-11.81Z" transform="translate(-181.66 -194.66)"/><path class="cls-1" d="M298.92,459.34l-13.45,2.79-.36-1.68,13.36-2.67Z" transform="translate(-181.66 -194.66)"/><path class="cls-1" d="M281.16,355.79q3.12,7,6.25,14l-1.87.7q-2.15-7.39-4.27-14.8Z" transform="translate(-181.66 -194.66)"/></svg>