<svg id="Calque_1" data-name="Calque 1" xmlns="http://www.w3.org/2000/svg" viewBox="0 0 35.76 35.76"><defs><style>.cls-1{fill:#fff;}.cls-2{fill:#262826;}.cls-3{fill:#819e82;}</style></defs><circle class="cls-1" cx="17.88" cy="17.88" r="17.88"/><path class="cls-2" d="M19.67,31.24l-3.6-5.44v5.44h-.72V24.46H16l3.59,5.42V24.46h.73v6.78Z" transform="translate(-12.44 -10.98)"/><path class="cls-2" d="M24.86,31.24v-.45a1.66,1.66,0,0,1-1.36.5,1.69,1.69,0,0,1-1.32-.42,1.37,1.37,0,0,1-.35-1c0-.82.57-1.35,1.62-1.35h1.41v-.45c0-.68-.35-1-1.2-1a1.22,1.22,0,0,0-1.18.53L22,27.19a1.82,1.82,0,0,1,1.66-.7c1.25,0,1.87.55,1.87,1.57v3.18Zm0-2.16H23.54c-.7,0-1,.28-1,.82s.33.8,1.07.8a1.36,1.36,0,0,0,1.05-.31,1.09,1.09,0,0,0,.24-.81Z" transform="translate(-12.44 -10.98)"/><path class="cls-2" d="M28.52,31.24A1.15,1.15,0,0,1,27.33,30V27.1h-.6v-.52h.6V25.11H28v1.47h1v.52H28V30c0,.43.2.69.64.69H29v.59Z" transform="translate(-12.44 -10.98)"/><path class="cls-2" d="M33.33,31.24v-.53a1.85,1.85,0,0,1-2.53.15,1.78,1.78,0,0,1-.47-1.32v-3H31v2.89c0,.83.44,1.24,1.14,1.24a1.1,1.1,0,0,0,1.17-1.24V26.55H34v4.69Z" transform="translate(-12.44 -10.98)"/><path class="cls-2" d="M38.35,27.45a1,1,0,0,0-.81-.35,1.15,1.15,0,0,0-1.13,1.26v2.88h-.68V26.55h.68v.57a1.58,1.58,0,0,1,1.32-.63,1.44,1.44,0,0,1,1.12.44Z" transform="translate(-12.44 -10.98)"/><path class="cls-2" d="M42.3,31.24v-.45a1.64,1.64,0,0,1-1.35.5,1.7,1.7,0,0,1-1.33-.42,1.41,1.41,0,0,1-.35-1c0-.82.57-1.35,1.62-1.35H42.3v-.45c0-.68-.34-1-1.2-1a1.23,1.23,0,0,0-1.18.53l-.47-.43a1.83,1.83,0,0,1,1.66-.7c1.26,0,1.88.55,1.88,1.57v3.18Zm0-2.16H41c-.71,0-1.05.28-1.05.82s.33.8,1.07.8a1.35,1.35,0,0,0,1.05-.31,1.09,1.09,0,0,0,.24-.81Z" transform="translate(-12.44 -10.98)"/><path class="cls-2" d="M45.83,31.24A1.12,1.12,0,0,1,44.64,30V24.46h.68V30c0,.46.15.69.63.69h.37v.59Z" transform="translate(-12.44 -10.98)"/><path class="cls-3" d="M21.47,23.66a.85.85,0,0,1,0,.23l.36-.41a4.68,4.68,0,0,1,.39-.38l.39-.35a4.35,4.35,0,0,1,.43-.32,4.41,4.41,0,0,1,.43-.25,1.43,1.43,0,0,1,.48-.13.52.52,0,0,1,.21,0,.23.23,0,0,1,.12.17.5.5,0,0,1,0,.21c0,.07-.07.14-.1.2a3.36,3.36,0,0,1-.31.43,4.35,4.35,0,0,0-.33.42l-.12.17a1,1,0,0,0-.11.17,6.25,6.25,0,0,1,.45-.44l.47-.4.42-.31a1.61,1.61,0,0,1,.47-.24l.09,0h.09s.06,0,.08,0a.07.07,0,0,1,0,.08.23.23,0,0,1-.08.14l-.12.12-.31.32c-.11.1-.22.22-.32.33a3.18,3.18,0,0,0-.27.37,1.48,1.48,0,0,0-.17.41.36.36,0,0,0,0,.1v.09a.14.14,0,0,0,.05.08.13.13,0,0,0,.1,0,.78.78,0,0,0,.26,0l.26-.07a1.25,1.25,0,0,0,.25-.09l.24-.1.24-.11,0,0s0,0,.05,0a0,0,0,0,1,0,.05.08.08,0,0,1,0,0l-.22.1-.23.1-.25.1-.25.1-.14.05-.16,0a.42.42,0,0,1-.16,0,.35.35,0,0,1-.14-.06.2.2,0,0,1-.08-.12.3.3,0,0,1,0-.13.4.4,0,0,1,0-.15c0-.05,0-.09.05-.13a1.87,1.87,0,0,1,.17-.31l.2-.28s.05-.06.12-.13l.21-.24.24-.28c.08-.1.15-.17.2-.24l-.15.05-.14.07a1.38,1.38,0,0,0-.24.14l-.23.15-.42.35-.4.37c-.27.27-.52.56-.75.84l-.05.07a.13.13,0,0,1-.06.07h-.08a.1.1,0,0,1,0-.07.13.13,0,0,1,.05-.11.46.46,0,0,0,.07-.1l.2-.27.35-.47.34-.48.2-.27a2.9,2.9,0,0,0,.19-.29l0-.08.06-.13a.27.27,0,0,0,0-.12.13.13,0,0,0,0-.1.21.21,0,0,0-.12,0l-.13,0-.14,0-.11,0a2.88,2.88,0,0,0-.5.24,4.84,4.84,0,0,0-.46.33,7,7,0,0,0-.94.94l-.13.16-.12.16a1.59,1.59,0,0,1-.4.68.24.24,0,0,1-.09.06h-.07a.08.08,0,0,1,0,0s0,0,0-.07a1.57,1.57,0,0,1,.18-.31l.2-.28a.72.72,0,0,0,.07-.33s0,0,0-.06a.14.14,0,0,1,0-.07.06.06,0,0,1,0-.06.09.09,0,0,1,0-.06.08.08,0,0,1,.08,0A.1.1,0,0,1,21.47,23.66Z" transform="translate(-12.44 -10.98)"/><path class="cls-3" d="M25.54,24.13l.55-.28.17-.1a.38.38,0,0,1,.18-.09.07.07,0,0,1,.08,0s0,.06,0,.09a.27.27,0,0,1-.07.08l-.08.08a1.43,1.43,0,0,0-.16.24s0,0,0,.06l0,.06s0,.05,0,.07a.05.05,0,0,0,0,0h.06l.11-.06.1-.06.06,0a1.33,1.33,0,0,0,.19-.14l.17-.15.05,0a.07.07,0,0,1,.06,0L27,24A.15.15,0,0,1,27,24l-.05.1-.07.1-.06.11-.06.1-.38.68a2.77,2.77,0,0,1,.36-.4s0,0,.09-.08l.15-.14.18-.16.19-.13a.56.56,0,0,1,.15-.08s.07,0,.08,0,0,0,0,.07l-.1.08-.12.07-.08,0-.21.17-.2.19a3.46,3.46,0,0,0-.35.4c-.11.14-.21.29-.31.44l-.1.19L26,26l0,.07,0,.05a.08.08,0,0,1-.08,0,.1.1,0,0,1-.06-.05.08.08,0,0,1,0-.07l0-.06c0-.08.09-.16.13-.24a1.71,1.71,0,0,0,.13-.23l.26-.48c.09-.16.17-.33.25-.5l.07-.13.06-.13-.2.16-.1.08-.11.08-.11.05a.25.25,0,0,1-.12,0,.13.13,0,0,1-.09-.11.3.3,0,0,1,0-.16,1.54,1.54,0,0,1,.08-.19l.11-.19L26,24l-.17.08-.16.08-.06,0h-.07s0,0,0-.05S25.52,24.14,25.54,24.13Z" transform="translate(-12.44 -10.98)"/><path class="cls-3" d="M23.28,35a8.14,8.14,0,0,0,.77-.41,3.35,3.35,0,0,0,.65-.49l.23-.41.23-.38a1.14,1.14,0,0,1,.31-.31l.13-.06a.4.4,0,0,1,.15,0,.17.17,0,0,1,.12,0s0,.08,0,.15a.56.56,0,0,1-.09.17l-.14.16a1,1,0,0,1-.15.14l-.13.13-.27.25a2.17,2.17,0,0,1-.29.24c0,.05-.05.1-.07.14l-.07.14-.11.21a1.59,1.59,0,0,1-.13.22,3.84,3.84,0,0,1,.4-.21l.41-.19a.43.43,0,0,1,.17-.06.28.28,0,0,1,.18,0,.18.18,0,0,1,.12.12.21.21,0,0,1,0,.17.54.54,0,0,1-.1.16l-.12.15a1.63,1.63,0,0,0-.11.17.33.33,0,0,0,0,.17,1.62,1.62,0,0,0,.34-.1l.33-.16.12-.06.12-.07a.06.06,0,0,1,.06,0l0,0a.07.07,0,0,1,0,.06.05.05,0,0,1,0,.05l-.28.15a1.59,1.59,0,0,0-.29.15l-.13.07a.56.56,0,0,1-.16.07.41.41,0,0,1-.16,0,.17.17,0,0,1-.13-.07.16.16,0,0,1,0-.13.27.27,0,0,1,0-.12.75.75,0,0,1,.07-.12l.07-.1.14-.19a.6.6,0,0,0,.08-.21h-.12l-.12,0-.12.05-.11,0-.27.14a1.65,1.65,0,0,0-.25.15,2.9,2.9,0,0,0-.29.22l-.12.1a.15.15,0,0,1-.07,0,.11.11,0,0,1-.1,0s-.05,0,0-.08a.12.12,0,0,1,0-.08,4.62,4.62,0,0,0,.34-.41c.1-.14.19-.29.28-.44a2.71,2.71,0,0,1-.35.24l-.35.23-.21.12-.21.12-.07,0a.06.06,0,0,1-.07,0,.09.09,0,0,1,0-.07A.08.08,0,0,1,23.28,35Zm2-1.44a1.49,1.49,0,0,0,.17-.18.66.66,0,0,0,.14-.2.91.91,0,0,0-.26.19,2.43,2.43,0,0,0-.2.25l-.13.22.14-.14A.93.93,0,0,0,25.29,33.51Z" transform="translate(-12.44 -10.98)"/><path class="cls-3" d="M26.21,35l.24-.12a1.15,1.15,0,0,1,.25-.12.59.59,0,0,1,.23-.24,1,1,0,0,1,.32-.12h.21a.23.23,0,0,1,.18.09.09.09,0,0,1,0,.11.34.34,0,0,1-.07.11l-.12.09-.1.06a.77.77,0,0,1-.25.1.65.65,0,0,1-.28,0h0a.31.31,0,0,0,.11.22.68.68,0,0,0,.46.14.88.88,0,0,0,.24,0l.3-.07.28-.11.13-.06.13-.07a.15.15,0,0,1,.09,0s0,0,0,.08a.16.16,0,0,1-.09.07l-.1,0-.32.14c-.19.07-.39.14-.58.19a1.07,1.07,0,0,1-.5,0,.66.66,0,0,1-.2-.14.5.5,0,0,1-.12-.23.36.36,0,0,1,0-.1.14.14,0,0,1,0-.09L26.5,35l-.12.07-.08,0a.09.09,0,0,1-.1,0s0,0,0-.07A.05.05,0,0,1,26.21,35Zm.64-.17a.79.79,0,0,0,.3-.08.76.76,0,0,0,.25-.18.35.35,0,0,0-.17,0l-.16,0-.13.1A.38.38,0,0,0,26.85,34.78Z" transform="translate(-12.44 -10.98)"/><path class="cls-3" d="M28.44,35l.2-.1.25-.11.25-.11.21-.09.16,0,.24-.07.24,0a.25.25,0,0,1,.16,0c.05.05.06.09,0,.13a.19.19,0,0,1-.12.07l-.28,0-.15.06-.14.09-.11.1-.16.17a.94.94,0,0,0-.12.18q0,.09,0,.12s.07,0,.13,0l.17-.06.17-.08.1-.06a2,2,0,0,0,.3-.24.08.08,0,0,1,.12,0,.11.11,0,0,1,0,.13.2.2,0,0,1,0,.08l-.06.06a.22.22,0,0,0-.05.08.06.06,0,0,0,0,.07.05.05,0,0,0,0,0,.56.56,0,0,0,.22,0,1.64,1.64,0,0,0,.28-.07l.28-.1.24-.11.07,0,.1-.05.09,0a.07.07,0,0,1,.06,0s0,0,0,.07l-.08.06-.1,0-.08,0-.22.1-.22.1-.16.07-.19.08a.58.58,0,0,1-.19,0,.27.27,0,0,1-.18,0c-.07,0-.12-.07-.13-.12a.33.33,0,0,1,0-.17l-.17.1-.23.13a.46.46,0,0,1-.24.08.3.3,0,0,1-.21,0,.19.19,0,0,1-.09-.18.32.32,0,0,1,.05-.16,1.67,1.67,0,0,1,.13-.2,1.54,1.54,0,0,1,.17-.19l.18-.14-.14.06-.22.11-.26.13-.26.12a.07.07,0,0,1-.06,0,.09.09,0,0,1-.05,0,.09.09,0,0,1,0-.05A.07.07,0,0,1,28.44,35Z" transform="translate(-12.44 -10.98)"/><path class="cls-3" d="M31.24,35a2.69,2.69,0,0,0,.38-.19,2.92,2.92,0,0,0,.37-.24,3.79,3.79,0,0,1,.2-.34l.21-.32.21-.3.23-.3L33,33a1.09,1.09,0,0,1,.26-.22.69.69,0,0,1,.17,0,.12.12,0,0,1,.14.09.23.23,0,0,1,0,.14.83.83,0,0,1-.07.13.64.64,0,0,1-.1.13l-.08.1a4.67,4.67,0,0,1-.57.68,5.26,5.26,0,0,1-.67.58l-.08.16a1.34,1.34,0,0,0-.07.18.72.72,0,0,0,0,.19.54.54,0,0,0,0,.18l.13,0h.15l.38-.1L33,35l.12-.05a.11.11,0,0,1,.12,0s0,.07,0,.09l-.1.06-.73.28-.21.07a.54.54,0,0,1-.21,0,.24.24,0,0,1-.25-.28.77.77,0,0,1,0-.15,1.88,1.88,0,0,1,.12-.3,4.88,4.88,0,0,1-.55.31.1.1,0,0,1-.1,0S31.19,35,31.24,35Zm1.29-.87a4.5,4.5,0,0,0,.55-.6,2.28,2.28,0,0,0,.21-.3s0,0,0-.08a.93.93,0,0,1,.05-.1.66.66,0,0,0-.17.12l-.13.13a4,4,0,0,0-.28.3l-.25.34a1.37,1.37,0,0,0-.13.2l-.12.2.11-.1Z" transform="translate(-12.44 -10.98)"/><path class="cls-3" d="M33.68,34.17h.22l.23,0,.39-.57a2.21,2.21,0,0,1,.46-.5l.11-.06.11,0a.11.11,0,0,1,.09,0,.11.11,0,0,1,0,.11.49.49,0,0,1-.14.24c-.07.08-.14.15-.19.22l-.2.25-.21.23L35,34l.62-.19.1,0a.09.09,0,0,1,.08,0,.11.11,0,0,1,0,.11.12.12,0,0,1-.07.07,3.89,3.89,0,0,1-.61.16l-.62.1h-.09l-.16.15-.17.13a1,1,0,0,0-.08.14l-.06.13a.37.37,0,0,0,0,.1.88.88,0,0,1,0,.15c0,.06,0,.1,0,.15s0,.07,0,.07a.55.55,0,0,0,.28,0l.27-.08.3-.1.29-.12.1,0s.06,0,.05.08,0,.07-.08.08l-.12,0-.45.17-.21.09L34,35.5a.72.72,0,0,1-.25,0,.21.21,0,0,1-.14-.17.49.49,0,0,1,.06-.29,2.89,2.89,0,0,1,.15-.31,4.59,4.59,0,0,1-.61.35h-.06s0,0,0,0a.06.06,0,0,1,0-.06s0,0,0,0a4,4,0,0,0,.83-.49l.09-.15-.21,0a.25.25,0,0,1-.18,0,.07.07,0,0,1,0-.09A.08.08,0,0,1,33.68,34.17Zm1.14-.6a.36.36,0,0,0,.07-.1.37.37,0,0,1,.06-.1l-.12.13-.09.1c-.08.09-.16.17-.23.26l-.19.27A3.29,3.29,0,0,0,34.82,33.57Z" transform="translate(-12.44 -10.98)"/><path class="cls-3" d="M35,35a8.14,8.14,0,0,0,.77-.41,3.35,3.35,0,0,0,.65-.49l.23-.41.23-.38a1.14,1.14,0,0,1,.31-.31l.12-.06.16,0a.13.13,0,0,1,.11,0s0,.08,0,.15a.42.42,0,0,1-.1.17l-.13.16-.15.14-.13.13-.27.25a3.07,3.07,0,0,1-.29.24l-.07.14a.61.61,0,0,0-.07.14,2.12,2.12,0,0,0-.11.21c0,.08-.09.15-.13.22a3,3,0,0,1,.4-.21l.41-.19a.44.44,0,0,1,.16-.06.28.28,0,0,1,.18,0,.18.18,0,0,1,.13.12.26.26,0,0,1,0,.17.86.86,0,0,1-.1.16l-.12.15a1.63,1.63,0,0,0-.11.17.33.33,0,0,0,0,.17,1.62,1.62,0,0,0,.34-.1l.33-.16.12-.06.11-.07A.06.06,0,0,1,38,35l0,0a.13.13,0,0,1,0,.06.05.05,0,0,1,0,.05l-.29.15a1.91,1.91,0,0,0-.28.15l-.14.07a.51.51,0,0,1-.15.07.44.44,0,0,1-.16,0,.21.21,0,0,1-.14-.07.2.2,0,0,1,0-.13.53.53,0,0,1,0-.12l.07-.12L37,35c0-.06.09-.12.13-.19a.46.46,0,0,0,.08-.21H37.1l-.12,0-.13.05-.1,0-.27.14a1.74,1.74,0,0,0-.26.15c-.13.1-.23.17-.28.22l-.12.1a.14.14,0,0,1-.08,0s-.05,0-.09,0,0,0,0-.08a.11.11,0,0,1,0-.08A2.64,2.64,0,0,0,36,34.8a4.17,4.17,0,0,0,.29-.44,3.64,3.64,0,0,1-.35.24l-.35.23-.22.12-.21.12-.06,0a.06.06,0,0,1-.07,0A.09.09,0,0,1,35,35,.08.08,0,0,1,35,35Zm2-1.44.17-.18a1.43,1.43,0,0,0,.14-.2.79.79,0,0,0-.26.19,1.57,1.57,0,0,0-.2.25l-.14.22.15-.14Z" transform="translate(-12.44 -10.98)"/><rect class="cls-2" x="2.91" y="22.77" width="6.95" height="0.16"/><rect class="cls-2" x="26.75" y="22.76" width="7.12" height="0.17"/></svg>